<svg width="52" height="39" viewBox="0 0 52 39" fill="none" xmlns="http://www.w3.org/2000/svg">
<path d="M32.4941 13.2245C38.9849 22.3918 38.3228 32.6122 31.0152 36.0525C23.7077 39.4928 12.5218 34.8501 6.03102 25.6829C-0.459804 16.5156 0.202317 6.29512 7.50989 2.85488C14.8175 -0.585397 26.0033 4.05726 32.4941 13.2245Z" stroke="#99A4C2" stroke-width="3" stroke-linecap="round" stroke-linejoin="round"/>
<path d="M19.2625 13.2245C12.7717 22.3918 13.4337 32.6122 20.7413 36.0525C28.0489 39.4928 39.2347 34.8501 45.7256 25.6829C52.2163 16.5156 51.5542 6.29512 44.2466 2.85488C36.9391 -0.585397 25.7532 4.05726 19.2625 13.2245Z" stroke="#99A4C2" stroke-width="3" stroke-linecap="round" stroke-linejoin="round"/>
<path d="M25.7202 6.36694C28.2412 8.19516 30.5731 10.5117 32.4939 13.2246C38.9847 22.3918 38.3226 32.6122 31.015 36.0526C29.4894 36.7708 27.7947 37.1367 26.009 37.1827" stroke="#99A4C2" stroke-width="3" stroke-linecap="round" stroke-linejoin="round"/>
</svg>
