<svg width="57" height="38" viewBox="0 0 57 38" fill="none" xmlns="http://www.w3.org/2000/svg">
<path d="M5.90078 14.6154L23.2401 29.8017L14.8905 14.6154H5.90078ZM28.5004 32.2452L38.2138 14.6154H18.787L28.5004 32.2452ZM14.974 11.6923L20.6517 2.92308H13.3598L5.34414 11.6923H14.974ZM33.7606 29.8017L51.1 14.6154H42.1102L33.7606 29.8017ZM19.0097 11.6923H37.9911L32.3134 2.92308H24.6874L19.0097 11.6923ZM42.0267 11.6923H51.6566L43.641 2.92308H36.349L42.0267 11.6923ZM45.9511 0.59375L56.6385 12.2861C56.8983 12.5601 57.0189 12.876 57.0004 13.2338C56.9818 13.5915 56.8241 13.8998 56.5272 14.1587L29.8085 37.5433C29.4745 37.8478 29.0385 38 28.5004 38C27.9623 38 27.5263 37.8478 27.1923 37.5433L0.473535 14.1587C0.17666 13.8998 0.0189453 13.5915 0.000390624 13.2338C-0.0181641 12.876 0.102441 12.5601 0.362207 12.2861L11.0497 0.59375C11.3837 0.197917 11.8568 0 12.4691 0H44.5316C45.1439 0 45.6171 0.197917 45.9511 0.59375Z" fill="#99A4C2"/>
</svg>
