<svg width="1441" height="294" viewBox="0 0 1441 294" fill="none" xmlns="http://www.w3.org/2000/svg">
<g clip-path="url(#clip0_384_31688)">
<path fill-rule="evenodd" clip-rule="evenodd" d="M1440.68 52.4946L1437.68 55.5316L1429.4 58.6811L1431.32 63.5178L1426.64 67.2859L1418.96 70.4354L1414.28 74.2597L1401.08 75.6657L1395.2 78.9839L1389.08 81.4585L1382 83.7081L1373.24 83.202L1363.52 82.0772L1350.8 81.796L1345.76 77.6904L1336.76 75.2158L1330.4 71.8976L1326.44 67.6233L1316.48 65.3737L1303.76 66.1611L1293.68 66.611L1283.12 68.4107L1271.36 69.0293L1266.2 73.5286L1252.04 73.3036L1244 76.2844L1243.52 81.8522L1231.16 83.7644L1228.28 88.6573L1214.12 89.4447L1207.76 94.2251L1193.96 94.5063L1183.16 91.4131L1168.76 91.9755L1160 89.2759L1152.68 86.014L1142.48 84.6642L1132.76 85.1141L1120.88 83.8769L1112.24 86.1827L1105.28 89.1635L1094.24 90.2883L1088 93.494L1078.88 95.6874L1073.6 98.6681L1074.2 103.561L1064.24 105.417L1052.6 105.867L1042.52 103.73L1032.44 102.436L1020.8 101.986L1013.48 98.6681L1001.24 98.8368L993.56 95.7999L982.76 94.9562L974.6 92.2005L963.92 91.3006L956.96 87.5887L944.72 87.8699L935.72 85.789L927.68 82.8645L917.84 81.0648L906.92 79.94L899 76.8468L887 76.2844L879.92 72.7975L867.8 72.46L861.2 67.6233L847.16 69.5918L836.96 67.6233L825.92 66.7797L816.2 69.1981L805.16 69.3106L795.8 71.3915L784.52 71.7851L774.44 73.1911L766.16 76.0594L757.88 78.9839L747.68 80.3899L737.12 80.8961L726.56 81.1773L718.04 84.1018L706.88 82.6958L696.68 84.608L687.2 82.2459L678.08 80.8399L667.64 79.94L657.8 78.1403L646.04 78.9277L635.84 77.3529L625.88 78.2528L615.32 78.9839L609.8 82.8645L600.44 84.4955L589.88 85.6203L582.08 88.0387L571.64 88.2636L559.64 88.4886L551.84 84.7205L539.12 85.1141L529.28 84.1018L518.6 83.4269L507.8 83.0895L498.08 81.1773L488.84 79.715L478.16 78.4778L475.76 73.9785L467.36 71.5602L456.8 70.3229L447.56 70.4354L437.48 70.3791L425.24 70.3229L420.8 75.5533L405.44 74.4284L398.72 79.1527L386.72 80.4462L374.96 81.8522L363.8 82.5833L353.24 79.94L342.92 78.9839L332.24 78.5902L320.12 79.6026L308.96 79.0964L300.08 76.1719L288.2 76.3406L281 71.9539L270.56 70.6603L260.96 68.5232L247.52 70.6041L237.8 68.6357L227.72 66.7235L216.32 68.1857L205.76 64.6426L195.32 68.3545L184.28 66.4423L173.96 68.0733L163.52 68.9169L152.36 68.5794L143 71.1103L131.6 70.7728L121.16 71.7289L110.36 72.3475L101.72 75.2721L91.0397 76.1157L82.1597 78.759L71.4797 79.5463L61.0397 80.7274L51.0797 82.2459L40.3997 82.977L28.8797 82.8645L19.5197 85.1141H8.11969L0.679688 87.7012V224.816L5.95969 224.422L16.5197 226.503L27.3197 226.897L38.2397 227.29L48.7997 228.753L59.9597 228.64L70.9997 228.977L81.5597 230.833L93.4397 228.753L104.48 228.865L115.4 229.54L126.8 231.227L138.32 231.79L149.36 233.87L161.72 232.633L173.84 232.296L185.36 233.027L196.76 234.264L208.52 234.433L218.36 236.795L229.52 236.176L239.12 239.663L251 236.907L261.08 239.438L272.24 238.595L282.2 241.8H293.12L304.64 239.269L314.96 241.519L326.24 239.719L336.56 241.857L347.12 242.925L358.28 241.913L368.96 242.475L379.16 244.612L391.04 243.881L402.56 244.106L413.84 245.681L425.6 244.612L437.24 244.275L448.4 246.525L460.28 244.725L471.56 246.131L482.84 247.593L494 246.525L504.8 246.862L515 249.224L526.04 248.774L537.08 248.493L547.52 250.18L558.32 250.63L569.24 250.968L580.28 250.461L591.08 251.193L602.12 251.642L613.16 250.911L624.2 248.83L635.24 248.887H646.28L657.32 249.168L668.36 249.112L679.4 249.449L690.44 251.755L701.48 251.305L712.52 251.924L723.68 248.662L734.72 249.955L745.76 251.642L756.8 251.08L767.84 250.18L778.88 250.461L789.92 248.549L801.08 250.968L812.12 250.405L823.16 250.461L834.2 249.674L845.12 248.324L856.28 250.574L867.44 251.361L878.36 248.493L889.4 249.505L900.56 251.305L911.6 250.855L922.52 247.706L933.44 248.043L944.36 248.999L955.4 250.124L966.08 247.424L977.12 249.28L988.04 249.337L998.96 248.887L1009.76 248.212L1020.56 247.424L1031.84 249.843L1042.64 249.112L1053.44 248.043L1064.48 248.774L1074.92 245.4L1086.2 248.437L1097 246.749L1108.04 247.874L1118.72 246.468L1129.4 244.219L1140.44 245.231L1151.36 245.4L1162.52 246.862L1173.08 244.669L1184 244.894L1195.16 245.962L1206.08 246.412L1216.76 244.612L1227.44 242.475L1238.36 242.756L1249.28 242.475L1260.08 241.913L1271 242.025L1282.28 244.725L1293.2 243.094L1304.48 244.556L1315.4 242.869L1326.44 242.588L1337.72 243.375L1348.88 243.994L1359.68 241.744H1370.84L1382.12 242.588L1392.92 240.563L1404.32 242.981L1415.24 240.9L1426.16 238.988L1437.44 241.125L1440.68 240.957V52.4946Z" fill="#8C8BFF"/>
<path fill-rule="evenodd" clip-rule="evenodd" d="M1440.68 124.449L1439.12 124.596L1430.24 123.171L1421.48 122.188L1411.16 122.827L1401.44 122.925L1392.56 122.04L1383.8 120.516H1374.08L1364 120.86L1355.24 122.581L1345.04 121.893L1335.44 122.237L1327.64 123.957L1316.36 122.679L1307.6 123.662L1298.6 124.793L1288.76 123.171L1279.04 124.695H1269.44L1261.52 122.581L1251.08 123.613L1241.84 122.237L1232.36 123.171L1224.2 124.301L1216.52 125.383L1204.52 125.235L1199 127.497L1188.56 127.989L1181.96 129.857L1173.8 131.282L1162.4 131.331L1152.2 130.299L1142 130.742L1130.96 130.84L1121.48 129.955L1116.08 127.497L1107.92 126.219L1097.24 125.776L1088.84 124.498L1078.16 123.957L1070.24 122.532L1061.96 120.958L1050.8 121.106L1040.36 120.565L1028.72 120.86L1022.12 122.974L1014.56 124.498L1005.2 125.629L995.72 126.71L988.16 128.087L980.24 129.513L970.04 129.709L958.4 130.102L951.2 128.136L944 126.563L932.96 126.071L926.48 124.301L915.68 124.154L908.12 121.893L897.32 122.63L890 124.351L879.08 124.744L878.96 127.3L869.84 128.529L864.8 130.299L862.28 132.364L861.8 134.576L848.96 135.559L851 138.165L845.72 139.984L834.68 140.623L827.6 141.901L818.84 142.54L809.24 144.113L800.48 142.393L790.04 142.589L784.52 140.18L775.76 139.443L767 138.607L755.36 138.804L750.68 136.543L740 136.297L733.16 134.773L726.56 133.2L719.12 131.921L708.2 131.676L698.96 130.938L693.68 128.923L684.8 128.038L676.64 126.956L665.96 127.005L658.52 125.285L648.44 125.186L640.04 123.908L630.68 123.269L621.44 122.482H611.36L600.92 123.367L591.68 122.384L581.48 123.318L572.48 121.647L562.4 122.335L553.04 121.303L543.08 122.089L533.24 122.728L523.88 120.614L513.92 121.794L504.32 120.516L494.48 122.089L484.76 122.138L475.16 120.565L465.32 122.089L455.72 120.516L445.88 121.45L436.04 121.991L426.68 120.565L416.96 120.369L406.64 122.04L397.04 121.598L387.2 121.45L377.36 121.303L369.44 119.68L362.6 117.91L350.72 118.943L342.68 117.91L334.76 116.583L325.04 116.927L315.08 115.698L305.24 116.976L295.4 117.321L286.52 118.451L276.56 118.746L266.48 119.041L256.04 118.992L247.64 120.762L236 119.287L226.88 121.106L217.28 120.172L208.04 119.533L197 120.713L189.68 118.5L179.72 118.451L169.64 118.55L161.36 117.075L151.52 117.173L141.92 118.205L131.96 117.566L121.88 117.468L111.56 117.271L103.04 119.336L92.5997 118.943L83.4797 120.024L72.9197 119.729L62.4797 119.189L52.9997 120.319L43.1597 120.909L32.9597 119.779L22.8797 120.27L13.2797 119.533L4.03969 118.55L0.679688 118.894V253.398L7.03969 252.464L15.7997 254.332L25.1597 255.316L35.9597 253.841L45.3197 255.021L55.6397 254.283L64.7597 255.758L74.5997 256.151L84.5597 256.053L94.1597 256.79L104.36 256.053L113.84 257.233L124.04 256.594L133.64 257.38L144.08 255.955L153.68 256.84L163.76 256.397L173.36 257.135L183.32 257.085L193.4 256.348L203 257.528L212.72 258.02L222.56 258.659L232.52 258.413L242.24 258.904L252.56 257.331L262.28 257.921L272 258.413L282.2 257.282L291.68 259.052L301.52 259.249L311.72 257.823L321.68 257.774L331.28 258.659L340.88 259.789L351.2 258.118L360.8 259.15L370.88 258.413L380.6 258.659L390.44 259.101L400.4 258.265L410.24 258.314L419.6 260.576L429.56 260.183L439.52 259.642L449.36 259.396L459.32 258.806L468.92 259.691L478.64 261.117L488.6 260.281L498.44 260.035L508.16 260.625L518 260.527L528.08 259.249L537.8 260.035L547.4 261.461L557.36 260.478L567.08 261.461L577.04 260.428L586.76 261.166L596.6 261.608L606.56 260.625L616.28 261.51L626.24 260.133L635.96 261.51L645.8 261.067L655.64 260.33L665.6 259.838L675.32 261.362L685.16 260.035L695 261.117L704.84 261.264L714.56 262.1L724.52 260.674L734.36 260.281L744.08 261.313L753.92 261.805L763.76 261.952L773.6 261.461L783.44 260.773L793.28 261.756L803.12 260.084L812.96 262.198L822.8 261.313L832.64 260.379L842.48 261.412L852.2 260.674L862.04 261.51L871.88 260.428L881.72 260.773L891.56 261.117L901.4 261.756L911.24 260.232L921.08 260.871L930.92 261.461L940.76 261.657L950.6 260.92L960.44 262.1L970.28 262.002L980 260.822L989.84 260.33L999.68 260.133L1009.52 260.428L1019.36 259.937L1029.2 261.215L1039.04 260.625L1048.88 260.183L1058.72 261.608L1068.56 261.559L1078.28 260.035L1088.24 262.002L1098.08 261.067L1107.8 259.937L1117.64 261.117H1127.48L1137.32 260.428L1147.16 259.74L1157 259.937L1166.84 261.608L1176.68 260.527L1186.52 260.773L1196.36 259.888L1206.2 261.412L1216.04 260.576L1225.88 261.756L1235.6 259.691L1245.44 260.035L1255.28 259.838L1265.12 260.035L1274.96 261.166L1284.8 259.789L1294.64 261.264L1304.48 260.527L1314.32 259.986L1324.16 261.117L1334 261.412L1343.84 260.92L1353.68 261.067L1363.4 259.888L1373.24 260.478L1383.08 260.822L1392.92 260.183L1402.76 261.313L1412.6 261.067L1422.44 261.559L1432.28 259.642L1440.68 260.33V124.449Z" fill="#A9A8FF"/>
<path fill-rule="evenodd" clip-rule="evenodd" d="M1440.68 138.361L1431.56 138.017L1421.6 137.673L1416.68 138.804L1407.92 138.312L1401.68 140.77L1393.76 139.935L1383.32 140.426L1372.88 138.853L1362.68 139.738L1352.6 140.819L1342.28 141.459L1333.4 139.295L1324.88 137.182L1313.84 136.641L1305.8 139.885L1298.72 143.327L1291.16 142.343L1284.08 141.262L1278.2 137.624L1268.12 135.903L1259.96 133.249L1253 130.152L1248.68 126.809L1240.16 125.137L1232.12 124.056L1222.16 123.367L1212.2 124.4L1205.24 122.925L1197.68 123.515L1188.2 123.416L1180.16 125.186L1173.68 127.89L1165.52 129.463L1156.04 130.102L1146.68 130.004L1138.4 128.48L1129.28 129.857L1119.56 130.741L1112.84 132.708L1105.16 134.134L1096.52 134.822L1087.88 134.379L1078.52 134.134L1069.52 133.544L1061.12 131.086L1051.28 131.233L1041.2 133.445L1029.68 132.265L1020.92 129.512L1016.96 125.629L1011.56 122.237L1000.76 120.663L993.56 118.009L991.04 115.796H984.08L977.36 113.093L977.84 109.356L975.08 106.161L968.96 104.096L964.28 105.62L957.32 106.308L946.76 106.702L935.96 105.964L925.16 107.193L918.08 110.389L910.64 112.847L908.84 116.976L900.8 119.238L890.96 120.418L883.76 122.089L877.04 124.252L869.6 125.924L857.48 128.726H847.4L836 128.677L829.04 132.118L820.64 134.429L811.52 135.953L806.48 139.345L803 141.95L797.6 144.31L789.2 145.096L781.28 144.998L773.6 146.473L769.88 149.373L760.64 149.963L756.44 151.881L749.24 153.651L741.56 155.371L734.12 157.043L727.04 158.665L719.96 161.221L711.32 159.009L703.52 157.387L692.96 156.502L686.24 153.847L677.6 153.503L668.96 154.093L659.96 153.7L653.48 151.291L645.92 149.079L641.36 146.129L630.92 146.965L622.76 145.981L612.32 147.407L603.68 150.652L593.96 149.914L587.36 148.882L581.72 146.522L572.96 144.507L567.08 141.311L562.52 137.526L556.76 133.986L550.76 131.135L540.44 128.972L537.56 124.94L527.12 123.662L521 120.811L511.52 120.565L505.16 117.861L498.92 115.256L490.88 112.306L478.64 111.962L469.16 110.438L468.2 106.259L458.36 105.276L449.12 105.374L439.4 105.866L428.96 104.244L419.96 103.703L406.64 104.391L398.84 104.588L389.36 104.686L382.16 106.456L372.56 107.439L362.84 106.161L349.64 107.882L336.92 107.734L327.68 106.997L320.84 109.701L313.52 111.716L305.96 113.732L297.2 115.551L291.8 118.5L287.96 121.794L280.52 124.105L277.64 127.743L269.6 129.709L263.72 133.052L254.96 135.412L251 139.295L240.32 140.869L234.32 142.983L228.2 145.096L220.52 146.375L214.64 148.784L205.28 149.128L195.8 149.177L188.48 146.817L176.36 145.883L164.72 143.425L155.6 143.13L146.48 145.539L138.2 147.505L128.96 148.882L119.6 150.16L113.84 153.7L103.76 154.585L96.7997 157.239L87.5597 157.731L82.0397 160.14L74.1197 160.386L63.9197 160.287L52.7597 161.32L44.1197 162.745L35.3597 161.025L26.8397 160.386L17.8397 161.27L8.95969 160.877L0.679688 159.943V295.972L4.63969 296.463L14.1197 296.758L23.4797 297.594L33.3197 296.709L42.4397 297.987L52.0397 297.889L61.8797 297.201L71.1197 298.233L80.5997 298.626L90.3197 297.938L99.5597 299.266L108.92 300.003L118.64 299.216L127.76 301.232L137.6 300.15L147.08 300.347L156.32 301.871L165.68 302.805L175.28 301.33L184.28 303.248L193.88 302.215L203.12 303.346L212.48 303.051L221.84 303.149L231.32 302.903L240.44 303.936L249.92 303.985L259.04 305.263L268.52 304.968L277.76 305.165L287 306.64L296.48 305.558L305.72 307.131L315.2 306.345L324.44 307.18L333.92 305.902L343.16 306.738L352.52 306.984L361.88 307.869L371.24 307.672L380.6 306.787L389.96 306.738L399.32 306.296L408.68 307.082L418.04 308.459L427.4 307.574L436.76 306.935L446.12 308.311L455.48 308.115L464.84 307.525L474.08 306.886L483.56 307.918L492.92 308.655L502.28 307.525L511.76 306.541L521.24 308.311L530.72 308.803L540.08 307.23L549.56 306.64L559.04 306.886L568.52 307.77L577.88 307.279L587.36 307.23L596.96 308.36L606.2 306.148L615.8 307.967L625.28 308.164L634.64 307.279L644.12 306.591L653.6 307.967L662.96 306.591L672.44 307.525L681.92 306.246L691.4 307.623L700.88 308.065L710.24 306.541L719.72 307.623L729.2 306.689L738.68 306.984L748.04 305.951L757.64 307.574L766.88 305.558L776.36 305.411L785.84 305.362L795.44 307.672L804.8 306.197L814.28 306.296L823.76 307.525L833.24 307.131L842.6 306.591L852.08 307.426L861.44 305.656L870.92 305.116L880.4 306.148L889.88 306.689L899.36 306.099L908.84 306.738L918.2 306.787L927.68 305.804L937.16 305.116L946.64 307.525L956 305.902L965.48 305.362L974.96 305.411L984.44 307.082L993.92 305.509L1003.28 307.82L1012.76 305.607L1022.36 307.475L1031.84 306.001L1041.44 306.541L1050.92 306.197L1060.52 307.082L1070 306.541L1079.6 308.016L1089.08 307.967L1098.68 307.77L1108.16 306.099L1117.76 307.525L1127.24 306.394L1136.72 306.001H1146.32L1155.92 307.623L1165.4 306.738L1174.88 305.853H1184.36L1193.96 307.082L1203.56 307.426L1213.04 306.886L1222.64 307.426L1232.12 305.362L1241.72 306.148L1251.2 305.362L1260.68 306.246L1270.28 307.574L1279.76 305.214L1289.36 306.443L1298.96 307.377L1308.44 306.836L1318.04 306.984L1327.52 307.721L1337.12 306.935L1346.6 307.525L1356.08 307.82L1365.68 305.656L1375.16 307.77L1384.76 307.623L1394.24 308.065L1403.84 306.443L1413.44 306.394L1422.92 307.279L1432.4 307.967L1440.68 308.262V138.361Z" fill="#C5C5FF"/>
<path fill-rule="evenodd" clip-rule="evenodd" d="M0.679688 353.048V169.628L3.79968 169.677L12.3197 171.152L21.1997 171.299L29.9597 171.644L38.5997 172.381L46.7596 173.856L55.0397 174.692L61.8796 176.756L68.4797 178.919L76.1597 180.443L81.9197 183.049L89.3596 184.72L97.6396 185.949L105.32 187.818L113.72 189.243L122.6 188.948L131.6 188.408L141.2 189.145L147.8 192.439L156.2 194.209L165.68 195.143L174.68 196.372L182.12 196.716L189.32 197.109L197 196.126L203.48 197.896L210.44 198.731L219.56 200.157L229.76 199.174L238.16 201.779L247.04 202.812L255.2 204.336L263.6 206.106L273.68 205.614L283.4 207.236L293.96 205.516L301.28 207.482L307.64 209.645L313.52 211.907L320.72 213.381L328.52 214.266L336.8 214.66L344.84 212.742L353.72 212.791L359.96 213.627L366.8 213.136L375.56 212.939L384.2 212.005L393.2 211.513L401.12 209.055L409.88 209.399L417.92 210.776L425.48 212.349L435.08 211.366L441.2 214.61L450.32 214.315L457.88 215.987H466.52L474.8 215.495L482.36 217.265L489.8 216.773L499.4 217.953L508.88 219.625L517.4 220.608L526.28 220.756L534.68 219.379L544.16 220.264L553.64 220.018L562.16 217.904L571.64 218.445L577.16 220.657L584.6 219.674L591.44 218.052L600.92 217.118L605.24 213.627L612.92 212.251L620.96 211.415L629 210.333L636.2 208.465L641.72 206.007L648.32 204.041L653.96 201.73L657.44 198.191L665.6 197.158L673.52 196.372L682.16 195.978L688.76 193.668L695.24 191.505L702.32 189.784L710.6 188.703L716.12 185.999L724.28 184.917L731.24 183.049L738.32 181.181L746.96 181.132L754.28 179.362L759.32 176.314L768.56 175.724L775.28 173.659L783.56 171.988L793.4 172.332L801.68 170.464L810.08 168.743L814.88 172.332L822.68 173.659L830 174.987L837.68 175.921L844.52 174.397L852.56 173.659L859.28 171.988L865.28 169.874L873.32 167.711L882.2 166.973L892.52 168.055L900.68 166.973L908 164.909L915.32 162.795L924.08 162.205L930.2 159.845L938.96 159.943L946.4 158.96H954.08L962.6 158.321L970.04 159.845L978.08 160.14L985.52 158.911L992.96 158.075L1000.16 156.502L1007.36 154.634L1012.28 151.34L1020.92 152.569L1029.2 153.11L1036.64 155.076L1045.76 154.978L1052.84 157.879L1062.44 156.404L1070.24 158.96L1079.12 158.714L1087.88 158.419L1096.28 157.19L1104.68 157.387L1112.24 158.911L1119.92 159.992L1124.72 163.139L1133.24 163.63L1141.04 164.22L1148.48 166.187L1156.88 167.367L1165.52 167.514L1174.16 168.055L1183.28 167.858L1192.04 167.121L1200.92 167.022L1209.68 165.154L1217.84 165.253L1225.88 166.678L1234.04 165.105L1242.2 166.039L1250.84 166.088L1259 164.564L1267.76 164.024L1276.64 163.532L1285.64 163.63L1294.52 163.729L1303.52 163.385L1312.52 164.024L1321.4 162.352L1329.8 162.008L1338.2 162.106L1346.12 163.04L1354.16 164.269L1362.2 163.04L1370.36 162.844L1378.76 162.696L1385.84 160.091L1394.96 160.14L1403.36 158.813L1411.88 157.338L1418 154.191L1426.16 152.323L1435.76 152.176L1440.68 152.372V353.048H0.679688Z" fill="#F8F9FD"/>
</g>
<defs>
<clipPath id="clip0_384_31688">
<rect width="1440" height="293.507" fill="white" transform="translate(0.679688 0.366455)"/>
</clipPath>
</defs>
</svg>
