<svg width="305" height="305" viewBox="0 0 305 305" fill="none" xmlns="http://www.w3.org/2000/svg">
<g opacity="0.9" clip-path="url(#clip0_588_24153)">
<path d="M260.453 104.297C260.453 104.297 223.703 135.643 264.702 204.261C301.112 265.2 217.236 290.372 181.323 282.903C134.801 273.227 108.762 214.139 72.8628 232.31C36.9635 250.481 2.69237 165.681 54.9607 135.287C119.981 97.4776 78.8454 74.52 84.9974 46.2798C89.4128 26.0113 149.005 -4.66649 180.475 31.5698C206.956 62.0622 220.263 51.4378 232.59 47.5659C250.369 41.98 288.638 72.6652 260.453 104.297Z" fill="#F1F1FF"/>
<path d="M300.088 0.0549927H138.137C135.419 0.0549927 133.214 2.23901 133.214 4.93314V68.2576C133.214 70.9517 135.419 73.1357 138.137 73.1357H300.088C302.807 73.1357 305.011 70.9517 305.011 68.2576V4.93314C305.011 2.23901 302.807 0.0549927 300.088 0.0549927Z" fill="#FFF7D6"/>
<path d="M161.435 43.1715L154.888 46.5862L156.137 39.3543L150.839 34.2384L158.161 33.1835L161.435 26.6041L164.715 33.1835L172.038 34.2384L166.739 39.3543L167.989 46.5862L161.435 43.1715Z" stroke="#FFD964" stroke-width="1.5" stroke-linejoin="round"/>
<path d="M190.277 43.1715L183.723 46.5862L184.972 39.3543L179.674 34.2384L186.997 33.1835L190.277 26.6041L193.551 33.1835L200.873 34.2384L195.575 39.3543L196.824 46.5862L190.277 43.1715Z" stroke="#FFD964" stroke-width="1.5" stroke-linejoin="round"/>
<path d="M219.113 43.1715L212.559 46.5862L213.808 39.3543L208.51 34.2384L215.833 33.1835L219.113 26.6041L222.387 33.1835L229.709 34.2384L224.411 39.3543L225.66 46.5862L219.113 43.1715Z" stroke="#FFD964" stroke-width="1.5" stroke-linejoin="round"/>
<path d="M247.949 43.1715L241.395 46.5862L242.644 39.3543L237.346 34.2384L244.669 33.1835L247.949 26.6041L251.222 33.1835L258.545 34.2384L253.247 39.3543L254.496 46.5862L247.949 43.1715Z" stroke="#FFD964" stroke-width="1.5" stroke-linejoin="round"/>
<path d="M276.785 43.1715L270.231 46.5862L271.48 39.3543L266.182 34.2384L273.505 33.1835L276.785 26.6041L280.058 33.1835L287.381 34.2384L282.083 39.3543L283.332 46.5862L276.785 43.1715Z" stroke="#FFD964" stroke-width="1.5" stroke-linejoin="round"/>
<path d="M225.838 91.7784H291.251C293.288 91.7784 294.943 93.4187 294.943 95.437V122.59H294.919V133.017L288.378 122.59H225.838C223.801 122.59 222.146 120.95 222.146 118.931V95.437C222.146 93.4187 223.801 91.7784 225.838 91.7784Z" fill="#78C1FA"/>
<path d="M231.229 100.114H285.861" stroke="#FFECF2" stroke-width="1.5" stroke-miterlimit="10" stroke-linecap="round"/>
<path d="M231.229 107.187H285.861" stroke="#FFECF2" stroke-width="1.5" stroke-miterlimit="10" stroke-linecap="round"/>
<path d="M231.229 114.26H285.861" stroke="#FFECF2" stroke-width="1.5" stroke-miterlimit="10" stroke-linecap="round"/>
<path d="M286.928 171.96H245.435C242.716 171.96 240.512 174.144 240.512 176.838V217.955C240.512 220.649 242.716 222.833 245.435 222.833H286.928C289.647 222.833 291.851 220.649 291.851 217.955V176.838C291.851 174.144 289.647 171.96 286.928 171.96Z" fill="#F98BAF"/>
<path d="M276.647 188.828L276.827 189.006C279.39 191.73 279.332 195.999 276.653 198.653L266.531 208.684C266.343 208.87 266.033 208.87 265.845 208.684L261.218 204.099L260.721 204.6L261.218 204.099L255.722 198.653C252.985 195.941 252.985 191.541 255.722 188.828C258.464 186.112 262.916 186.112 265.657 188.828L266.185 189.351L266.713 188.828C269.454 186.112 273.906 186.112 276.647 188.828Z" stroke="white" stroke-width="1.5"/>
<path d="M207.855 131.308H176.047C173.328 131.308 171.124 133.492 171.124 136.186V167.705C171.124 170.399 173.328 172.583 176.047 172.583H207.855C210.574 172.583 212.778 170.399 212.778 167.705V136.186C212.778 133.492 210.574 131.308 207.855 131.308Z" fill="#7CE0BB"/>
<path d="M179.629 148.546L189.339 158.168L204.268 143.381" stroke="#EAFAF4" stroke-width="2" stroke-miterlimit="10" stroke-linecap="round"/>
<path d="M120.44 163.369C119.252 169.448 91.9729 176.119 91.9729 176.119L56.0789 163.332L98.625 150.363L120.44 163.375V163.369Z" fill="#B82E5C"/>
<path d="M126.698 268.45L134.556 287.835C134.556 287.835 142.199 288.17 145.337 286.317L140.137 262.548L126.698 268.45Z" fill="#B82E5C"/>
<path d="M40.9286 265.006L39.101 285.817C39.101 285.817 45.7653 289.537 49.4083 289.293L55.6111 265.762L40.9286 265.006Z" fill="#B82E5C"/>
<path d="M134.562 287.835V298.805C134.562 298.805 141.165 299.787 145.343 298.805C149.521 297.823 168.899 290.183 168.899 290.183C168.899 290.183 168.105 285.872 164.155 284.695C160.198 283.518 145.343 286.317 145.343 286.317L134.562 287.835Z" fill="#FDD8E4"/>
<path d="M49.4082 289.293C49.4082 289.293 51.4266 294.781 51.4266 299.244C51.4266 299.244 51.4266 302.726 44.5161 303.903C39.3039 304.793 29.4705 301.354 29.4705 301.354C29.4705 301.354 31.4458 291.823 39.0947 285.817L49.402 289.293H49.4082Z" fill="#FBB1CA"/>
<path d="M39.7471 291.829C35.9749 291.902 32.1412 299.25 32.1412 299.25L30.289 298.634C29.7044 300.287 29.4767 301.366 29.4767 301.366C29.4767 301.366 39.3102 304.799 44.5223 303.915C51.4328 302.738 51.4328 299.256 51.4328 299.256C51.4328 298.848 51.4082 298.427 51.3774 298.006L49.8698 299.256C49.8698 299.256 43.5192 291.762 39.7471 291.835V291.829Z" fill="#B82E5C"/>
<path d="M36.8303 287.859C36.8303 287.859 35.6057 279.012 41.7347 281.756C47.8637 284.5 48.3929 289.64 48.3929 289.64L36.8303 287.859Z" fill="#FBB1CA"/>
<path d="M164.149 284.701C161.927 284.042 156.266 284.634 151.725 285.28C151.725 285.28 152.672 278.426 148.919 280.39C145.159 282.347 145.337 286.323 145.337 286.323L143.577 291.829L134.556 287.841C132.581 294.335 134.556 301.165 134.556 301.165C134.556 301.165 141.159 299.793 145.337 298.811C149.509 297.829 168.893 290.189 168.893 290.189C168.893 290.189 168.099 285.878 164.149 284.701Z" fill="#FBB1CA"/>
<path d="M164.149 284.701C163.115 284.396 161.343 284.36 159.287 284.476C158.106 287.976 158.013 291.829 158.013 291.829C149.725 295.195 139.085 297.622 134.033 298.671C134.279 300.208 134.556 301.165 134.556 301.165C134.556 301.165 141.159 299.793 145.337 298.811C149.509 297.829 168.893 290.189 168.893 290.189C168.893 290.189 168.099 285.878 164.149 284.701Z" fill="#B82E5C"/>
<path d="M66.7001 148.698C66.7001 148.698 47.6054 183.461 42.098 209.285C36.5966 235.109 33.8459 281.366 33.8459 281.366C33.8459 281.366 43.6917 285.286 55.5744 281.366C55.5744 281.366 68.6077 225.59 71.3338 217.486C74.066 209.376 100.194 152.729 100.194 152.729L66.7001 148.698Z" fill="#F76495"/>
<path d="M112.089 150.357C112.089 150.357 125.578 184.936 129.928 202.181C134.279 219.431 146.851 279.402 146.851 279.402C146.851 279.402 136.371 286.573 126.341 284.835C126.341 284.835 103.148 219.248 97.0002 204.217C90.8527 189.187 77.3209 150.357 77.3209 150.357H112.083H112.089Z" fill="#F76495"/>
<path d="M51.8207 278.603C51.8207 278.603 61.4819 232.627 67.0263 216.035C72.5707 199.443 88.2562 163.375 88.2562 163.375" stroke="#F53D7A" stroke-miterlimit="10"/>
<path d="M86.7362 166.906C86.7362 166.906 101.486 199.534 109.578 225.943C117.67 252.359 128.353 281.231 128.353 281.231" stroke="#F53D7A" stroke-miterlimit="10"/>
<path d="M123.744 277.487C123.744 277.487 121.707 279.42 126.347 284.835C126.347 284.835 133.842 290.25 146.857 279.402C146.857 279.402 148.617 275.597 145.343 272.207C145.343 272.207 133.245 280.012 123.744 277.487Z" fill="#FDD8E4"/>
<path d="M34.4242 272.878C34.4242 272.878 30.9351 277.317 33.8458 281.366C33.8458 281.366 42.7931 288.03 55.5742 281.366C55.5742 281.366 59.0387 277.981 57.168 274.579C57.168 274.579 37.7348 277.719 34.4242 272.884V272.878Z" fill="#FDD8E4"/>
<path d="M159.404 77.7823C159.404 77.7823 158.758 70.2882 160.567 67.2455C162.376 64.2028 164.019 62.971 165.779 58.8124C166.524 57.0502 168.044 58.4831 167.908 59.7941C167.908 59.7941 169.238 57.0502 170.105 58.0319C170.973 59.0136 170.105 61.5808 170.105 61.5808C170.105 61.5808 170.973 61.0015 171.367 62.1112C171.761 63.221 170.105 69.2029 170.105 69.2029C170.105 69.2029 171.17 64.5991 172.062 66.0686C172.954 67.5382 170.579 73.8615 170.579 73.8615C170.579 73.8615 170.087 79.2031 166.721 81.6543L159.404 77.7945V77.7823Z" fill="#FDD8E4"/>
<path d="M167.909 59.7939C167.909 59.7939 167.404 63.6659 165.041 67.7575" stroke="#F98BAF" stroke-miterlimit="10"/>
<path d="M170.105 61.5745C170.105 61.5745 169.195 67.3185 167.515 69.7271" stroke="#F98BAF" stroke-miterlimit="10"/>
<path d="M170.893 66.0379C170.893 66.0379 170.105 70.477 168.807 72.6295" stroke="#F98BAF" stroke-miterlimit="10"/>
<path d="M96.2804 88.4351C96.2804 88.4351 86.1639 87.7582 78.5088 87.0204C70.8537 86.2826 65.5923 85.8313 65.5923 85.8313L56.0789 163.327C71.4075 183.614 112.089 153.973 120.433 163.369C120.433 163.369 113.923 118.43 109.326 95.984C109.326 95.984 102.717 91.118 96.2804 88.4412V88.4351Z" fill="#FBB1CA"/>
<path d="M96.2806 88.4351C96.2806 88.4351 94.016 78.9715 94.2314 68.7456L81.6903 63.2394C81.6903 63.2394 82.4841 79.0446 78.5089 87.0204C78.5089 87.0204 91.9546 97.9414 96.2806 88.4351Z" fill="#FDD8E4"/>
<path d="M94.2312 68.7517L82.6563 63.6663L82.4901 65.8066C82.4901 65.8066 83.6593 76.386 95.2527 82.9228C94.6866 79.2337 94.1204 74.0994 94.2312 68.7517Z" fill="#7B1F3D"/>
<path d="M79.161 52.9159C82.1331 42.8791 101.191 40.8486 102.151 55.1477C102.662 62.7088 104.243 75.3371 97.4126 76.831C90.5821 78.3311 74.835 67.5382 79.161 52.9098V52.9159Z" fill="#FDD8E4"/>
<path d="M93.1359 58.4894C92.8344 58.4711 92.5698 58.837 92.539 59.3126C92.5082 59.7882 92.7298 60.1785 93.0313 60.1967C93.3328 60.215 93.5974 59.8492 93.6282 59.3736C93.6589 58.8979 93.4374 58.5077 93.1359 58.4894Z" fill="#B82E5C"/>
<path d="M99.6278 58.8732C99.3263 58.8549 99.0617 59.2207 99.0309 59.6963C99.0002 60.1659 99.2217 60.5622 99.5232 60.5805C99.8247 60.5988 100.089 60.2329 100.12 59.7573C100.151 59.2817 99.9294 58.8914 99.6278 58.8732Z" fill="#B82E5C"/>
<path d="M89.1482 57.233C89.1482 57.233 91.905 56.1415 94.2618 56.6598C94.2618 56.6598 93.9234 55.0134 93.345 54.9403C92.7665 54.8671 89.7882 55.233 89.1482 57.2391V57.233Z" fill="#B82E5C"/>
<path d="M102.237 56.3306C102.207 55.9282 102.176 55.5318 102.151 55.1477C101.523 45.7694 93.1115 43.4157 86.5579 45.7328L87.9609 48.3487C87.9609 48.3487 88.6686 56.7148 100.477 53.2818C100.477 53.2818 100.834 54.9403 102.231 56.3245L102.237 56.3306Z" fill="#7B1F3D"/>
<path d="M98.3479 57.2329C98.3479 57.2329 99.6771 56.8914 100.557 57.6109C100.557 57.6109 100.145 56.0438 99.2956 55.7877C98.4464 55.5316 98.3418 57.2329 98.3418 57.2329H98.3479Z" fill="#B82E5C"/>
<path d="M84.7423 40.9641C88.3975 40.08 90.0528 38.9641 90.0528 38.9641C90.0528 38.9641 90.5513 40.8788 89.4498 41.4641C89.4498 41.4641 95.4557 37.464 99.7448 40.4641C104.391 43.7142 107.455 42.8178 107.455 42.8178C107.455 42.8178 106.741 44.4337 105.148 44.9093C105.148 44.9093 107.671 47.6289 106.741 50.2936C105.818 52.9583 104.138 52.9217 103.714 55.2754C103.714 55.2754 100.225 53.7936 99.7448 50.4643C99.7448 50.4643 98.8894 51.7753 99.3633 53.1107C99.3633 53.1107 91.4497 53.9095 87.9606 48.3667C87.9606 48.3667 87.0253 53.8302 84.7423 54.3973C84.7423 54.3973 85.7638 59.8121 84.1084 60.6109L81.6962 69.8732C81.6962 69.8732 79.0933 64.8061 74.638 59.9279C70.1828 55.0498 77.161 50.4338 77.161 50.4338C77.161 50.4338 75.4811 49.7997 74.2196 49.7997C74.2196 49.7997 75.7334 46.7203 78.5087 49.385C78.5087 49.385 76.2564 43.0251 84.7423 40.9763V40.9641Z" fill="#B82E5C"/>
<path d="M84.7424 61.3549C84.7424 61.3549 79.7826 54.9889 78.7241 58.8914C77.9611 61.6902 82.8594 65.5074 82.8594 65.5074L84.7424 61.3549Z" fill="#FDD8E4"/>
<path d="M83.2164 62.9099C83.2164 62.9099 80.5826 57.2451 80.078 59.1781C79.5734 61.1111 81.6472 62.5257 81.6472 62.5257" stroke="#F98BAF" stroke-miterlimit="10"/>
<path d="M92.145 61.8126C92.145 61.8126 90.5574 60.4589 88.2313 60.3247" stroke="#F98BAF" stroke-miterlimit="10"/>
<path d="M99.4557 61.7815C99.4557 61.7815 100.409 61.1839 101.499 60.9766" stroke="#F98BAF" stroke-miterlimit="10"/>
<path d="M85.05 57.2328C85.05 57.2328 85.3146 62.8305 89.6837 66.5562C89.6837 66.5562 90.2375 65.3672 92.1451 65.0318C94.0527 64.6964 98.0895 66.0379 98.0895 66.0379C98.0895 66.0379 101.123 63.5805 102.668 65.5135C104.212 67.4465 105.098 76.6906 99.4433 77.9406C93.7943 79.1906 87.4007 76.9832 86.0592 72.7149C86.0592 72.7149 86.9084 63.6781 83.2101 59.6475L85.0439 57.2328H85.05Z" fill="#B82E5C"/>
<path d="M98.6249 68.0929C98.6249 68.0929 94.4712 67.5136 92.2928 66.5502C92.2928 66.5502 93.9789 72.8369 98.6249 68.0929Z" fill="white"/>
<path d="M94.2312 71.5018C94.2312 71.5018 96.0342 70.6542 97.0065 71.5018" stroke="#F98BAF" stroke-miterlimit="10"/>
<path d="M97.2404 60.0443C97.2404 60.0443 97.2896 63.3126 99.7757 65.5871C99.7757 65.5871 97.9111 66.7273 96.4158 65.3858" stroke="#F98BAF" stroke-miterlimit="10"/>
<path d="M120.636 101.368L138.242 110.46C138.242 110.46 156.438 83.5263 159.404 77.7883L166.721 81.6482C166.721 81.6482 150.697 125.442 145.755 126.673C140.814 127.905 118.858 120.021 118.858 120.021L120.636 101.374V101.368Z" fill="#FDD8E4"/>
<path d="M133.411 107.96L120.636 101.362L118.858 120.009C118.858 120.009 129.344 123.777 137.454 125.698C134.507 119.899 133.614 113.002 133.411 107.96Z" fill="#B82E5C"/>
<path d="M96.2805 88.4345C96.2805 88.4345 102.674 87.3248 109.578 91.3858C113.966 93.9712 133.547 103.209 133.547 103.209C133.547 103.209 129.35 121.563 123.215 129.746C123.215 129.746 108.649 119.246 102.68 114.392C96.7051 109.539 96.2867 88.4345 96.2867 88.4345H96.2805Z" fill="#FBB1CA"/>
<path d="M113.929 121.832L109.326 107.063" stroke="#F53D7A" stroke-miterlimit="10"/>
<path d="M78.6442 91.8863C78.6442 91.8863 93.5113 102.252 99.4557 90.0875" stroke="#F53D7A" stroke-miterlimit="10"/>
<path d="M130.476 101.758C130.476 101.758 127.227 115.368 120.439 128.216" stroke="#F53D7A" stroke-miterlimit="10"/>
<path d="M164.345 66.6966C164.345 66.6966 168.53 70.1662 169.195 73.5809" stroke="#F98BAF" stroke-miterlimit="10"/>
<path d="M159.404 77.7819C159.404 77.7819 159.903 73.7574 161.909 72.2452C166.721 68.611 167.515 65.1841 168.37 67.4036C168.813 68.55 167.644 72.8245 165.207 73.2208C165.207 73.2208 165.878 76.0197 164.487 80.471L159.404 77.788V77.7819Z" fill="#FDD8E4"/>
<path d="M81.0074 115.267L17.982 104.255C15.3045 103.787 12.7512 105.559 12.2791 108.212L1.16599 170.664C0.693868 173.318 2.48171 175.848 5.15924 176.315L68.1846 187.328C70.8621 187.795 73.4154 186.024 73.8875 183.371L85.0006 120.918C85.4727 118.265 83.6849 115.735 81.0074 115.267Z" fill="#F1F1FF"/>
<path d="M20.4185 140.521C20.4185 140.521 34.375 143.412 40.3193 142.15C46.2637 140.887 48.4052 120.033 51.3159 120.527C55.9988 121.32 53.9004 133.052 52.1651 137.845C52.1651 137.845 69.2598 141.186 71.9182 144.308C74.5765 147.43 69.1367 150.906 69.1367 150.906C69.1367 150.906 70.7059 153.125 69.9306 155.473C69.1552 157.815 66.5707 159.308 66.5707 159.308C66.5707 159.308 68.866 164.491 62.7985 166.437C62.7985 166.437 63.4939 169.565 58.4171 170.979C53.3404 172.394 48.436 173.187 34.1596 166.742C31.052 165.339 16.5541 161.601 16.5541 161.601L20.4247 140.521H20.4185Z" fill="white" stroke="#6F6EFF" stroke-miterlimit="10"/>
<path d="M69.7338 150.467C66.9586 151.4 53.5621 149.058 53.5621 149.058" stroke="#6F6EFF" stroke-miterlimit="10"/>
<path d="M66.5646 159.302C63.7524 160.052 51.3159 156.979 51.3159 156.979" stroke="#6F6EFF" stroke-miterlimit="10"/>
<path d="M62.7926 166.43C58.6881 167.07 49.3346 164.076 49.3346 164.076" stroke="#6F6EFF" stroke-miterlimit="10"/>
<path d="M15.4388 134.384L9.69531 166.661L25.9849 169.507L31.7285 137.23L15.4388 134.384Z" fill="#8C8BFF"/>
<path d="M37.7286 89.0751C37.7286 89.0751 37.0271 116.271 50.2328 117.393C50.2328 117.393 53.808 109.021 50.2328 99.9411C46.6575 90.8556 37.7286 89.0751 37.7286 89.0751Z" fill="#F53D7A"/>
<path d="M50.9161 91.0322C50.9161 91.0322 24.4432 100.66 23.9201 108.496C23.3909 116.338 36.0058 153.204 36.0058 153.204L44.1778 151.216L39.9195 112.941L58.1404 107.978C58.1404 107.978 58.6635 99.1787 50.9222 91.0322H50.9161Z" fill="#FDD8E4"/>
<path d="M55.8448 108.6L56.5094 99.7335C55.7033 97.6725 54.491 95.392 52.6942 93.0992L47.8144 92.2395C46.1344 92.9163 43.9007 93.8493 41.4823 94.9651C41.9254 99.3006 42.4484 106.459 41.9254 112.398L55.8448 108.606V108.6Z" fill="#B82E5C"/>
<path d="M78.5087 87.0203C78.5087 87.0203 75.438 81.7519 66.2445 82.569C54.7495 83.5934 37.7286 89.0692 37.7286 89.0692C37.7286 89.0692 49.5497 104.783 50.2328 117.387L63.5492 110.832C63.5492 110.832 79.3025 98.2035 78.5087 87.0142V87.0203Z" fill="#FBB1CA"/>
<path d="M44.1715 151.21C44.1715 151.21 46.1714 151.302 47.7529 153.027C49.3344 154.753 52.5651 156.905 52.3804 158.277C52.1958 159.649 47.6483 156.905 47.6483 156.905C47.6483 156.905 46.8545 158.869 48.7375 162.491C50.6144 166.113 51.6051 168.076 48.9344 167.296C48.9344 167.296 48.639 168.863 47.3529 168.375C46.0668 167.887 45.4761 166.906 45.4761 166.906C45.4761 166.906 44.83 167.832 44.1715 167.79C43.5131 167.747 41.4209 165.241 41.4209 165.241C41.4209 165.241 38.061 165.436 37.0702 163.918C36.0795 162.399 35.9995 153.204 35.9995 153.204L44.1715 151.216V151.21Z" fill="#FDD8E4"/>
<path d="M48.9344 167.296C48.9344 167.296 45.4699 163.644 44.6823 159.443" stroke="#F98BAF" stroke-miterlimit="10"/>
<path d="M45.4761 166.906C45.4761 166.906 43.0515 164.247 41.5931 159.845" stroke="#F98BAF" stroke-miterlimit="10"/>
<path d="M41.421 165.235C41.421 165.235 39.0396 162.381 38.498 159.839" stroke="#F98BAF" stroke-miterlimit="10"/>
<path d="M43.5316 87.3431C43.5316 87.3431 53.0328 99.9958 52.3867 116.331" stroke="#F53D7A" stroke-miterlimit="10"/>
<path d="M63.5494 110.838C63.5494 110.838 74.8167 104.137 76.4597 91.0267" stroke="#F53D7A" stroke-miterlimit="10"/>
<rect x="211.349" y="247.759" width="41.7635" height="41.284" rx="6" fill="#DAA8FF"/>
<path d="M243.679 266.408L241.441 263.554L242.642 260.182C242.761 259.851 242.671 259.484 242.411 259.237C242.151 258.989 241.766 258.904 241.417 259.016L237.874 260.16L234.875 258.03C234.581 257.821 234.187 257.789 233.859 257.948C233.531 258.107 233.327 258.429 233.332 258.779L233.38 262.339L230.325 264.395C230.025 264.597 229.871 264.944 229.928 265.29C229.986 265.635 230.245 265.92 230.596 266.024L233.126 266.773L218.287 280.895C217.909 281.254 217.909 281.836 218.287 282.195C218.664 282.554 219.276 282.554 219.653 282.195L234.492 268.072L235.279 270.481C235.388 270.815 235.687 271.062 236.05 271.116C236.101 271.124 236.151 271.127 236.202 271.127C236.512 271.127 236.808 270.985 236.99 270.739L239.151 267.832L242.892 267.877C242.896 267.877 242.9 267.877 242.904 267.877C243.267 267.877 243.6 267.683 243.765 267.375C243.932 267.063 243.899 266.688 243.679 266.408V266.408ZM238.668 265.987C238.349 265.983 238.05 266.128 237.867 266.375L236.543 268.156C235.806 265.9 235.845 265.907 235.623 265.696C235.386 265.47 235.35 265.504 233.038 264.821L234.909 263.561C235.169 263.386 235.322 263.101 235.318 262.799L235.288 260.618L237.126 261.922C237.38 262.103 237.713 262.153 238.013 262.056L240.184 261.356L239.448 263.422C239.346 263.708 239.398 264.024 239.589 264.266L240.96 266.015L238.668 265.987V265.987Z" fill="#F9F1FF"/>
<path d="M227.461 258.033L226.689 256.691L225.918 258.033L224.509 258.767L225.918 259.501L226.689 260.843L227.461 259.501L228.871 258.767L227.461 258.033Z" fill="#F9F1FF"/>
<path d="M238.404 275.459L237.78 274.374L237.156 275.459L236.016 276.053L237.156 276.647L237.78 277.732L238.404 276.647L239.544 276.053L238.404 275.459Z" fill="#F9F1FF"/>
<path d="M239.281 255.423L238.658 254.337L238.034 255.423L236.893 256.016L238.034 256.61L238.658 257.695L239.281 256.61L240.422 256.016L239.281 255.423Z" fill="#F9F1FF"/>
<path d="M245.775 262.166L245.401 261.516L245.028 262.166L244.346 262.521L245.028 262.876L245.401 263.526L245.775 262.876L246.457 262.521L245.775 262.166Z" fill="#F9F1FF"/>
<path d="M245.89 270.495L244.345 270.925L242.802 270.495L243.254 271.964L242.802 273.434L244.345 273.003L245.89 273.434L245.437 271.964L245.89 270.495Z" fill="#F9F1FF"/>
</g>
<defs>
<clipPath id="clip0_588_24153">
<rect width="305" height="304" fill="white" transform="translate(0 0.0549927)"/>
</clipPath>
</defs>
</svg>
