<svg width="56" height="41" viewBox="0 0 56 41" fill="none" xmlns="http://www.w3.org/2000/svg">
<path d="M27.9999 0.333252C26.7199 0.333252 26.2933 1.06659 25.4399 1.79992L0.693268 36.6333C0.266602 36.9999 0.266602 37.7333 0.266602 38.0999C0.266602 39.9333 1.97327 40.6666 3.25327 40.6666H52.7466C54.4533 40.6666 55.7333 39.9333 55.7333 38.0999C55.7333 37.3666 55.7333 37.3666 55.3066 36.6333L30.9866 1.79992C30.1333 1.06659 29.2799 0.333252 27.9999 0.333252ZM27.9999 5.83325L42.0799 25.9999H38.6666L32.2666 20.4999L27.9999 25.9999L23.7333 20.4999L17.3333 25.9999H13.4933L27.9999 5.83325Z" fill="#99A4C2"/>
</svg>
