<svg version="1.2" xmlns="http://www.w3.org/2000/svg" viewBox="0 0 1441 159" width="1441" height="159">
	<title>shape-footer-svg</title>
	<defs>
		<clipPath clipPathUnits="userSpaceOnUse" id="cp1">
			<path d="m0.68-63.63h1440v293.5h-1440z"/>
		</clipPath>
	</defs>
	<style>
		.s0 { fill: #8c8bff } 
		.s1 { fill: #a9a8ff } 
		.s2 { fill: #c5c5ff } 
		.s3 { fill: #f8f9fd } 
	</style>
	<g id="Clip-Path" clip-path="url(#cp1)">
		<g id="Layer">
			<path id="Layer" fill-rule="evenodd" class="s0" d="m1440.7-11.5l-3 3-8.3 3.2 1.9 4.8-4.7 3.8-7.6 3.1-4.7 3.9-13.2 1.4-5.9 3.3-6.1 2.5-7.1 2.2-8.8-0.5-9.7-1.1-12.7-0.3-5-4.1-9-2.5-6.4-3.3-4-4.3-9.9-2.2-12.7 0.8-10.1 0.4-10.6 1.8-11.7 0.6-5.2 4.5-14.2-0.2-8 3-0.5 5.6-12.3 1.9-2.9 4.9-14.2 0.7-6.3 4.8-13.8 0.3-10.8-3.1-14.4 0.6-8.8-2.7-7.3-3.3-10.2-1.3-9.7 0.4-11.9-1.2-8.7 2.3-6.9 3-11.1 1.1-6.2 3.2-9.1 2.2-5.3 3 0.6 4.9-10 1.8-11.6 0.5-10.1-2.2-10.1-1.3-11.6-0.4-7.3-3.3-12.3 0.1-7.6-3-10.8-0.8-8.2-2.8-10.7-0.9-6.9-3.7-12.3 0.3-9-2.1-8-2.9-9.9-1.8-10.9-1.2-7.9-3.1-12-0.5-7.1-3.5-12.1-0.3-6.6-4.9-14 2-10.2-2-11.1-0.8-9.7 2.4-11 0.1-9.4 2.1-11.3 0.4-10.1 1.4-8.2 2.9-8.3 2.9-10.2 1.4-10.6 0.5-10.5 0.3-8.6 2.9-11.1-1.4-10.2 1.9-9.5-2.4-9.1-1.4-10.5-0.9-9.8-1.8-11.8 0.8-10.2-1.5-9.9 0.9-10.6 0.7-5.5 3.9-9.4 1.6-10.5 1.1-7.8 2.4-10.5 0.3-12 0.2-7.8-3.8-12.7 0.4-9.8-1-10.7-0.7-10.8-0.3-9.7-1.9-9.3-1.5-10.6-1.2-2.4-4.5-8.4-2.4-10.6-1.3-9.2 0.1h-10.1l-12.3-0.1-4.4 5.3-15.4-1.2-6.7 4.8-12 1.2-11.7 1.5-11.2 0.7-10.6-2.7-10.3-0.9-10.7-0.4-12.1 1-11.1-0.5-8.9-2.9-11.9 0.1-7.2-4.3-10.4-1.3-9.6-2.2-13.5 2.1-9.7-2-10.1-1.9-11.4 1.5-10.5-3.6-10.5 3.8-11-2-10.3 1.7-10.5 0.8-11.1-0.3-9.4 2.5-11.4-0.3-10.4 0.9-10.8 0.6-8.7 3-10.7 0.8-8.8 2.7-10.7 0.7-10.5 1.2-9.9 1.5-10.7 0.8-11.5-0.1-9.4 2.2h-11.4l-7.4 2.6v137.1l5.3-0.4 10.5 2.1 10.8 0.4 10.9 0.4 10.6 1.5 11.2-0.2 11 0.4 10.6 1.8 11.8-2 11.1 0.1 10.9 0.6 11.4 1.7 11.5 0.6 11.1 2.1 12.3-1.3 12.1-0.3 11.6 0.7 11.4 1.3 11.7 0.1 9.9 2.4 11.1-0.6 9.6 3.5 11.9-2.8 10.1 2.5 11.1-0.8 10 3.2h10.9l11.5-2.5 10.4 2.2 11.2-1.8 10.4 2.2 10.5 1 11.2-1 10.7 0.6 10.2 2.1 11.8-0.7 11.6 0.2 11.2 1.6 11.8-1.1 11.6-0.3 11.2 2.2 11.9-1.8 11.3 1.4 11.2 1.5 11.2-1.1 10.8 0.4 10.2 2.3 11-0.4 11.1-0.3 10.4 1.7 10.8 0.4 10.9 0.4 11.1-0.5 10.8 0.7 11 0.4 11.1-0.7 11-2.1 11 0.1h11.1l11 0.3 11.1-0.1 11 0.3 11 2.4 11.1-0.5 11 0.6 11.2-3.2 11 1.3 11.1 1.6 11-0.5 11-0.9 11.1 0.3 11-2 11.2 2.5 11-0.6 11.1 0.1 11-0.8 10.9-1.4 11.2 2.3 11.1 0.8 11-2.9 11 1 11.2 1.8 11-0.4 10.9-3.2 10.9 0.3 11 1 11 1.1 10.7-2.7 11 1.9h10.9l11-0.4 10.8-0.7 10.8-0.8 11.2 2.4 10.8-0.7 10.8-1.1 11.1 0.8 10.4-3.4 11.3 3 10.8-1.7 11 1.2 10.7-1.4 10.7-2.3 11 1 11 0.2 11.1 1.5 10.6-2.2 10.9 0.2 11.2 1.1 10.9 0.4 10.7-1.8 10.6-2.1 11 0.3 10.9-0.3 10.8-0.6 10.9 0.1 11.3 2.7 10.9-1.6 11.3 1.5 10.9-1.7 11-0.3 11.3 0.8 11.2 0.6 10.8-2.3h11.1l11.3 0.9 10.8-2 11.4 2.4 10.9-2.1 11-1.9 11.2 2.1 3.3-0.1z"/>
			<path id="Layer" fill-rule="evenodd" class="s1" d="m1440.7 60.4l-1.6 0.2-8.9-1.4-8.7-1-10.3 0.6-9.8 0.1-8.8-0.9-8.8-1.5h-9.7l-10.1 0.4-8.8 1.7-10.2-0.7-9.6 0.3-7.8 1.8-11.2-1.3-8.8 1-9 1.1-9.8-1.6-9.8 1.5h-9.6l-7.9-2.1-10.4 1-9.3-1.4-9.4 1-8.2 1.1-7.7 1.1-12-0.2-5.5 2.3-10.4 0.5-6.6 1.9-8.2 1.4h-11.4l-10.2-1-10.2 0.4-11 0.1-9.5-0.8-5.4-2.5-8.2-1.3-10.7-0.4-8.4-1.3-10.6-0.5-8-1.5-8.2-1.5-11.2 0.1-10.4-0.5-11.7 0.3-6.6 2.1-7.5 1.5-9.4 1.1-9.5 1.1-7.5 1.4-8 1.4-10.2 0.2-11.6 0.4-7.2-2-7.2-1.5-11-0.5-6.5-1.8-10.8-0.1-7.6-2.3-10.8 0.7-7.3 1.8-10.9 0.3-0.1 2.6-9.2 1.2-5 1.8-2.5 2.1-0.5 2.2-12.8 1 2 2.6-5.3 1.8-11 0.6-7.1 1.3-8.8 0.6-9.6 1.6-8.7-1.7-10.5 0.2-5.5-2.4-8.7-0.8-8.8-0.8-11.6 0.2-4.7-2.3-10.7-0.2-6.8-1.5-6.6-1.6-7.5-1.3-10.9-0.2-9.2-0.8-5.3-2-8.9-0.9-8.2-1h-10.6l-7.5-1.7-10.1-0.1-8.4-1.3-9.3-0.6-9.3-0.8h-10l-10.5 0.9-9.2-1-10.2 0.9-9-1.7-10.1 0.7-9.4-1-9.9 0.8-9.9 0.6-9.3-2.1-10 1.2-9.6-1.3-9.8 1.6h-9.7l-9.6-1.5-9.9 1.5-9.6-1.6-9.8 1-9.9 0.5-9.3-1.4-9.7-0.2-10.4 1.6-9.6-0.4-9.8-0.1-9.8-0.2-8-1.6-6.8-1.8-11.9 1-8-1-7.9-1.3-9.8 0.3-9.9-1.2-9.9 1.3-9.8 0.3-8.9 1.2-9.9 0.2-10.1 0.3h-10.5l-8.4 1.8-11.6-1.5-9.1 1.8-9.6-0.9-9.3-0.7-11 1.2-7.3-2.2h-10-10.1l-8.2-1.4-9.9 0.1-9.6 1-9.9-0.6-10.1-0.1-10.3-0.2-8.6 2-10.4-0.4-9.1 1.1-10.6-0.3-10.4-0.5-9.5 1.1-9.8 0.6-10.2-1.1-10.1 0.5-9.6-0.8-9.3-1-3.3 0.4v134.5l6.3-0.9 8.8 1.8 9.4 1 10.8-1.5 9.3 1.2 10.3-0.7 9.2 1.5 9.8 0.4 10-0.1 9.6 0.7 10.2-0.7 9.4 1.1 10.2-0.6 9.6 0.8 10.5-1.4 9.6 0.8 10.1-0.4 9.6 0.7h9.9l10.1-0.8 9.6 1.2 9.7 0.5 9.9 0.7 9.9-0.3 9.7 0.5 10.4-1.6 9.7 0.6 9.7 0.5 10.2-1.1 9.5 1.8 9.8 0.1 10.2-1.4h10l9.6 0.9 9.6 1.1 10.3-1.7 9.6 1 10.1-0.7 9.7 0.3 9.8 0.4 10-0.8h9.8l9.4 2.3 10-0.4 9.9-0.6 9.9-0.2 9.9-0.6 9.6 0.9 9.7 1.4 10-0.8 9.8-0.3 9.8 0.6 9.8-0.1 10.1-1.3 9.7 0.8 9.6 1.5 10-1 9.7 1 9.9-1.1 9.8 0.8 9.8 0.4 10-1 9.7 0.9 9.9-1.4 9.8 1.4 9.8-0.4 9.8-0.8 10-0.5 9.7 1.6 9.9-1.4 9.8 1.1 9.8 0.2 9.8 0.8 9.9-1.4 9.9-0.4 9.7 1 9.8 0.5 9.9 0.2 9.8-0.5 9.8-0.7 9.9 1 9.8-1.7 9.9 2.1 9.8-0.9 9.8-0.9 9.9 1 9.7-0.7 9.8 0.8 9.9-1.1 9.8 0.4 9.9 0.3 9.8 0.7 9.8-1.6 9.9 0.7 9.8 0.6 9.9 0.2 9.8-0.8 9.8 1.2 9.9-0.1 9.7-1.2 9.8-0.5 9.9-0.2 9.8 0.3 9.9-0.5 9.8 1.3 9.8-0.6 9.9-0.4 9.8 1.4h9.9l9.7-1.6 9.9 2 9.9-0.9 9.7-1.2 9.8 1.2h9.9l9.8-0.7 9.9-0.7 9.8 0.2 9.8 1.7 9.9-1.1 9.8 0.3 9.9-0.9 9.8 1.5 9.8-0.8 9.9 1.2 9.7-2.1 9.8 0.3 9.9-0.2 9.8 0.2 9.9 1.2 9.8-1.4 9.8 1.5 9.9-0.8 9.8-0.5 9.9 1.1 9.8 0.3 9.8-0.5 9.9 0.2 9.7-1.2 9.8 0.6 9.9 0.3 9.8-0.6 9.9 1.1 9.8-0.2 9.8 0.5 9.9-2 8.4 0.7z"/>
			<path id="Layer" fill-rule="evenodd" class="s2" d="m1440.7 74.4l-9.1-0.4-10-0.3-4.9 1.1-8.8-0.5-6.2 2.5-7.9-0.9-10.5 0.5-10.4-1.5-10.2 0.8-10.1 1.1-10.3 0.7-8.9-2.2-8.5-2.1-11.1-0.6-8 3.3-7.1 3.4-7.5-1-7.1-1-5.9-3.7-10.1-1.7-8.1-2.7-7-3-4.3-3.4-8.5-1.7-8.1-1-9.9-0.7-10 1-7-1.5-7.5 0.6-9.5-0.1-8 1.8-6.5 2.7-8.2 1.6-9.5 0.6-9.3-0.1-8.3-1.5-9.1 1.4-9.7 0.8-6.8 2-7.6 1.4-8.7 0.7-8.6-0.4-9.4-0.3-9-0.6-8.4-2.4-9.8 0.1-10.1 2.2-11.5-1.1-8.8-2.8-3.9-3.9-5.4-3.4-10.8-1.5-7.2-2.7-2.6-2.2h-6.9l-6.7-2.7 0.4-3.7-2.7-3.2-6.1-2.1-4.7 1.5-7 0.7-10.5 0.4-10.8-0.7-10.8 1.2-7.1 3.2-7.5 2.4-1.8 4.2-8 2.2-9.8 1.2-7.2 1.7-6.8 2.2-7.4 1.6-12.1 2.8h-10.1-11.4l-7 3.4-8.4 2.3-9.1 1.6-5 3.3-3.5 2.6-5.4 2.4-8.4 0.8-7.9-0.1-7.7 1.5-3.7 2.9-9.3 0.6-4.2 1.9-7.2 1.8-7.6 1.7-7.5 1.6-7.1 1.7-7 2.5-8.7-2.2-7.8-1.6-10.5-0.9-6.8-2.7-8.6-0.3-8.6 0.6-9-0.4-6.5-2.4-7.6-2.2-4.5-3-10.5 0.9-8.1-1-10.5 1.4-8.6 3.3-9.7-0.8-6.6-1-5.7-2.4-8.7-2-5.9-3.2-4.6-3.8-5.7-3.5-6-2.9-10.4-2.1-2.8-4.1-10.5-1.2-6.1-2.9-9.5-0.2-6.3-2.7-6.3-2.6-8-3-12.3-0.3-9.4-1.6-1-4.1-9.8-1-9.3 0.1-9.7 0.5-10.4-1.7-9-0.5-13.4 0.7-7.8 0.2-9.4 0.1-7.2 1.8-9.6 0.9-9.8-1.2-13.2 1.7-12.7-0.2-9.2-0.7-6.9 2.7-7.3 2-7.5 2-8.8 1.9-5.4 2.9-3.8 3.3-7.5 2.3-2.9 3.6-8 2-5.9 3.4-8.7 2.3-4 3.9-10.7 1.6-6 2.1-6.1 2.1-7.7 1.3-5.9 2.4-9.3 0.3-9.5 0.1-7.3-2.4-12.1-0.9-11.7-2.5-9.1-0.3-9.1 2.4-8.3 2-9.2 1.4-9.4 1.3-5.8 3.5-10 0.9-7 2.6-9.2 0.5-5.6 2.4-7.9 0.3-10.2-0.1-11.1 1-8.7 1.4-8.7-1.7-8.6-0.6-9 0.9-8.8-0.4-8.3-1v136.1l3.9 0.5 9.5 0.3 9.4 0.8 9.8-0.9 9.1 1.3 9.6-0.1 9.9-0.7 9.2 1 9.5 0.4 9.7-0.7 9.3 1.4 9.3 0.7 9.7-0.8 9.2 2 9.8-1.1 9.5 0.2 9.2 1.6 9.4 0.9 9.6-1.5 9 1.9 9.6-1 9.2 1.1 9.4-0.2h9.3l9.5-0.2 9.1 1 9.5 0.1 9.1 1.3 9.5-0.3 9.3 0.2 9.2 1.4 9.5-1 9.2 1.5 9.5-0.8 9.2 0.9 9.5-1.3 9.3 0.8 9.3 0.3 9.4 0.9 9.3-0.2 9.4-0.9 9.4-0.1 9.3-0.4 9.4 0.8 9.3 1.4 9.4-0.9 9.4-0.7 9.3 1.4 9.4-0.2 9.3-0.6 9.3-0.6 9.5 1 9.3 0.8 9.4-1.2 9.5-1 9.4 1.8 9.5 0.5 9.4-1.6 9.5-0.6 9.4 0.3 9.5 0.9 9.4-0.5 9.5-0.1 9.6 1.2 9.2-2.3 9.6 1.9 9.5 0.2 9.3-0.9 9.5-0.7 9.5 1.4 9.4-1.4 9.4 0.9 9.5-1.3 9.5 1.4 9.5 0.5 9.3-1.6 9.5 1.1 9.5-0.9 9.5 0.3 9.3-1 9.6 1.6 9.3-2 9.5-0.2h9.4l9.6 2.3 9.4-1.5 9.5 0.1 9.5 1.2 9.4-0.4 9.4-0.5 9.5 0.8 9.3-1.7 9.5-0.6 9.5 1 9.5 0.6 9.5-0.6 9.4 0.6 9.4 0.1 9.5-1 9.5-0.7 9.4 2.4 9.4-1.6 9.5-0.5h9.5l9.4 1.7 9.5-1.6 9.4 2.3 9.5-2.2 9.6 1.9 9.4-1.5 9.6 0.5 9.5-0.3 9.6 0.9 9.5-0.6 9.6 1.5h9.5l9.6-0.2 9.5-1.7 9.6 1.4 9.4-1.1 9.5-0.4h9.6l9.6 1.6 9.5-0.9 9.5-0.8h9.5l9.6 1.2 9.6 0.3 9.4-0.5 9.6 0.5 9.5-2 9.6 0.7 9.5-0.7 9.5 0.8 9.6 1.4 9.5-2.4 9.6 1.2 9.6 1 9.4-0.6 9.6 0.2 9.5 0.7 9.6-0.8 9.5 0.6 9.5 0.3 9.6-2.1 9.5 2.1 9.6-0.2 9.4 0.5 9.6-1.7h9.6l9.5 0.9 9.5 0.7 8.3 0.3z"/>
			<path id="Layer" fill-rule="evenodd" class="s3" d="m0.7 289v-183.4l3.1 0.1 8.5 1.5 8.9 0.1 8.8 0.3 8.6 0.8 8.2 1.5 8.2 0.8 6.9 2.1 6.6 2.1 7.7 1.5 5.7 2.6 7.5 1.7 8.2 1.2 7.7 1.9 8.4 1.4 8.9-0.3 9-0.5 9.6 0.7 6.6 3.3 8.4 1.8 9.5 0.9 9 1.3 7.4 0.3 7.2 0.4 7.7-1 6.5 1.8 6.9 0.8 9.2 1.5 10.2-1 8.4 2.6 8.8 1 8.2 1.5 8.4 1.8 10.1-0.5 9.7 1.6 10.6-1.7 7.3 2 6.3 2.1 5.9 2.3 7.2 1.5 7.8 0.9 8.3 0.4 8-2 8.9 0.1 6.3 0.8 6.8-0.5 8.8-0.2 8.6-0.9 9-0.5 7.9-2.4 8.8 0.3 8 1.4 7.6 1.5 9.6-0.9 6.1 3.2 9.1-0.3 7.6 1.7h8.6l8.3-0.5 7.6 1.8 7.4-0.5 9.6 1.2 9.5 1.6 8.5 1 8.9 0.2 8.4-1.4 9.5 0.9 9.4-0.3 8.6-2.1 9.4 0.5 5.6 2.3 7.4-1 6.8-1.6 9.5-1 4.3-3.5 7.7-1.3 8.1-0.9 8-1.1 7.2-1.8 5.5-2.5 6.6-2 5.7-2.3 3.4-3.5 8.2-1 7.9-0.8 8.7-0.4 6.6-2.3 6.4-2.2 7.1-1.7 8.3-1.1 5.5-2.7 8.2-1.1 6.9-1.9 7.1-1.8 8.7-0.1 7.3-1.7 5-3.1 9.3-0.6 6.7-2 8.3-1.7 9.8 0.3 8.3-1.8 8.4-1.8 4.8 3.6 7.8 1.4 7.3 1.3 7.7 0.9 6.8-1.5 8.1-0.7 6.7-1.7 6-2.1 8-2.2 8.9-0.7 10.3 1.1 8.2-1.1 7.3-2.1 7.3-2.1 8.8-0.6 6.1-2.4 8.8 0.1 7.4-0.9h7.7l8.5-0.7 7.4 1.5 8.1 0.3 7.4-1.2 7.5-0.8 7.2-1.6 7.2-1.9 4.9-3.3 8.6 1.3 8.3 0.5 7.4 2 9.2-0.1 7 2.9 9.6-1.5 7.8 2.6 8.9-0.3 8.8-0.3 8.4-1.2 8.4 0.2 7.5 1.5 7.7 1.1 4.8 3.1 8.5 0.5 7.8 0.6 7.5 2 8.4 1.2 8.6 0.1 8.7 0.6 9.1-0.2 8.7-0.8 8.9-0.1 8.8-1.8 8.1 0.1 8.1 1.4 8.1-1.6 8.2 0.9 8.6 0.1 8.2-1.5 8.8-0.6 8.8-0.5 9 0.1 8.9 0.1 9-0.3 9 0.6 8.9-1.6 8.4-0.4 8.4 0.1 7.9 0.9 8.1 1.3 8-1.3 8.2-0.2 8.4-0.1 7-2.6h9.2l8.4-1.3 8.5-1.5 6.1-3.1 8.2-1.9 9.6-0.1 4.9 0.2v200.6z"/>
		</g>
	</g>
</svg>