<svg width="1440" height="295" viewBox="0 0 1440 295" fill="none" xmlns="http://www.w3.org/2000/svg">
<path fill-rule="evenodd" clip-rule="evenodd" d="M1440 0.886719L1437 4.25137L1428.72 7.74063L1430.64 13.0992L1425.96 17.2738L1418.28 20.7631L1413.6 25L1400.4 26.5578L1394.52 30.2339L1388.4 32.9755L1381.32 35.4678L1372.56 34.9071L1362.84 33.6609L1350.12 33.3494L1345.08 28.8009L1336.08 26.0593L1329.72 22.3831L1325.76 17.6477L1315.8 15.1553L1303.08 16.0276L1293 16.5261L1282.44 18.52L1270.68 19.2054L1265.52 24.19L1251.36 23.9408L1243.32 27.2431L1242.84 33.4117L1230.48 35.5302L1227.6 40.951L1213.44 41.8233L1207.08 47.1195L1193.28 47.431L1182.48 44.0041L1168.08 44.6272L1159.32 41.6364L1152 38.0225L1141.8 36.5271L1132.08 37.0256L1120.2 35.6548L1111.56 38.2094L1104.6 41.5118L1093.56 42.7579L1087.32 46.3095L1078.2 48.7395L1072.92 52.0419L1073.52 57.4627L1063.56 59.5189L1051.92 60.0173L1041.84 57.6496L1031.76 56.2165L1020.12 55.7181L1012.8 52.0419L1000.56 52.2288L992.88 48.8641L982.08 47.9295L973.92 44.8764L963.24 43.8795L956.28 39.7671L944.04 40.0787L935.04 37.7733L927 34.5332L917.16 32.5394L906.24 31.2932L898.32 27.8662L886.32 27.2431L879.24 23.38L867.12 23.0062L860.52 17.6477L846.48 19.8285L836.28 17.6477L825.24 16.713L815.52 19.3923L804.48 19.5169L795.12 21.8223L783.84 22.2585L773.76 23.8162L765.48 26.9939L757.2 30.2339L747 31.7917L736.44 32.3524L725.88 32.664L717.36 35.904L706.2 34.3463L696 36.4648L686.52 33.8478L677.4 32.2901L666.96 31.2932L657.12 29.2993L645.36 30.1716L635.16 28.427L625.2 29.4239L614.64 30.2339L609.12 34.5332L599.76 36.3402L589.2 37.5863L581.4 40.2656L570.96 40.5148L558.96 40.7641L551.16 36.5894L538.44 37.0256L528.6 35.904L517.92 35.1563L507.12 34.7825L497.4 32.664L488.16 31.044L477.48 29.6732L475.08 24.6885L466.68 22.0092L456.12 20.6385L446.88 20.7631L436.8 20.7008L424.56 20.6385L420.12 26.4331L404.76 25.187L398.04 30.4209L386.04 31.854L374.28 33.4117L363.12 34.2217L352.56 31.2932L342.24 30.2339L331.56 29.7978L319.44 30.9193L308.28 30.3586L299.4 27.1185L287.52 27.3055L280.32 22.4454L269.88 21.0123L260.28 18.6446L246.84 20.95L237.12 18.7692L227.04 16.6507L215.64 18.2707L205.08 14.3453L194.64 18.4577L183.6 16.3392L173.28 18.1461L162.84 19.0807L151.68 18.7069L142.32 21.5108L130.92 21.1369L120.48 22.1962L109.68 22.8816L101.04 26.1216L90.36 27.0562L81.48 29.9847L70.8 30.857L60.36 32.1655L50.4 33.8478L39.72 34.6578L28.2 34.5332L18.84 37.0256H7.44L0 39.8917V191.799L5.28 191.363L15.84 193.669L26.64 194.105L37.56 194.541L48.12 196.161L59.28 196.036L70.32 196.41L80.88 198.466L92.76 196.161L103.8 196.286L114.72 197.033L126.12 198.903L137.64 199.526L148.68 201.831L161.04 200.46L173.16 200.086L184.68 200.896L196.08 202.267L207.84 202.454L217.68 205.071L228.84 204.386L238.44 208.249L250.32 205.196L260.4 208L271.56 207.065L281.52 210.617H292.44L303.96 207.813L314.28 210.305L325.56 208.311L335.88 210.679L346.44 211.863L357.6 210.741L368.28 211.364L378.48 213.732L390.36 212.922L401.88 213.171L413.16 214.916L424.92 213.732L436.56 213.358L447.72 215.85L459.6 213.857L470.88 215.414L482.16 217.034L493.32 215.85L504.12 216.224L514.32 218.841L525.36 218.343L536.4 218.031L546.84 219.901L557.64 220.399L568.56 220.773L579.6 220.212L590.4 221.022L601.44 221.521L612.48 220.711L623.52 218.405L634.56 218.467H645.6L656.64 218.779L667.68 218.717L678.72 219.091L689.76 221.645L700.8 221.147L711.84 221.832L723 218.218L734.04 219.651L745.08 221.521L756.12 220.897L767.16 219.901L778.2 220.212L789.24 218.094L800.4 220.773L811.44 220.15L822.48 220.212L833.52 219.34L844.44 217.844L855.6 220.337L866.76 221.209L877.68 218.031L888.72 219.153L899.88 221.147L910.92 220.648L921.84 217.159L932.76 217.533L943.68 218.592L954.72 219.838L965.4 216.847L976.44 218.904L987.36 218.966L998.28 218.467L1009.08 217.72L1019.88 216.847L1031.16 219.527L1041.96 218.717L1052.76 217.533L1063.8 218.343L1074.24 214.604L1085.52 217.969L1096.32 216.1L1107.36 217.346L1118.04 215.788L1128.72 213.296L1139.76 214.417L1150.68 214.604L1161.84 216.224L1172.4 213.794L1183.32 214.044L1194.48 215.227L1205.4 215.726L1216.08 213.732L1226.76 211.364L1237.68 211.676L1248.6 211.364L1259.4 210.741L1270.32 210.866L1281.6 213.857L1292.52 212.05L1303.8 213.67L1314.72 211.8L1325.76 211.489L1337.04 212.361L1348.2 213.047L1359 210.554H1370.16L1381.44 211.489L1392.24 209.246L1403.64 211.925L1414.56 209.62L1425.48 207.501L1436.76 209.869L1440 209.682V0.886719Z" fill="#E2E2FF"/>
<path fill-rule="evenodd" clip-rule="evenodd" d="M1440 60.2667L1438.44 60.4536L1429.56 58.6467L1420.8 57.4005L1410.48 58.2105L1400.76 58.3351L1391.88 57.2136L1383.12 55.282H1373.4L1363.32 55.7182L1354.56 57.899L1344.36 57.0266L1334.76 57.4628L1326.96 59.6436L1315.68 58.0236L1306.92 59.2697L1297.92 60.7028L1288.08 58.6467L1278.36 60.5782H1268.76L1260.84 57.899L1250.4 59.2074L1241.16 57.4628L1231.68 58.6467L1223.52 60.0797L1215.84 61.4505L1203.84 61.2636L1198.32 64.1298L1187.88 64.7529L1181.28 67.1206L1173.12 68.9275L1161.72 68.9898L1151.52 67.6814L1141.32 68.2421L1130.28 68.3668L1120.8 67.2452L1115.4 64.1298L1107.24 62.5098L1096.56 61.949L1088.16 60.329L1077.48 59.6436L1069.56 57.8366L1061.28 55.8428L1050.12 56.0297L1039.68 55.3443L1028.04 55.7182L1021.44 58.3974L1013.88 60.329L1004.52 61.7621L995.04 63.1329L987.48 64.8775L979.56 66.6844L969.36 66.9337L957.72 67.4321L950.52 64.9398L943.32 62.9459L932.28 62.3228L925.8 60.0797L915 59.8928L907.44 57.0266L896.64 57.9613L889.32 60.142L878.4 60.6405L878.28 63.8806L869.16 65.4383L864.12 67.6814L861.6 70.2983L861.12 73.1022L848.28 74.3484L850.32 77.6507L845.04 79.9561L834 80.7661L826.92 82.3861L818.16 83.1961L808.56 85.19L799.8 83.0092L789.36 83.2584L783.84 80.2053L775.08 79.2707L766.32 78.2115L754.68 78.4607L750 75.5945L739.32 75.283L732.48 73.3514L725.88 71.3576L718.44 69.7375L707.52 69.426L698.28 68.4914L693 65.9367L684.12 64.8152L675.96 63.4444L665.28 63.5067L657.84 61.3259L647.76 61.2013L639.36 59.5813L630 58.7713L620.76 57.7743H610.68L600.24 58.8959L591 57.6497L580.8 58.8336L571.8 56.7151L561.72 57.5874L552.36 56.2789L542.4 57.2759L532.56 58.0859L523.2 55.4066L513.24 56.902L503.64 55.282L493.8 57.2759L484.08 57.3382L474.48 55.3443L464.64 57.2759L455.04 55.282L445.2 56.4659L435.36 57.1513L426 55.3443L416.28 55.0951L405.96 57.2136L396.36 56.6528L386.52 56.4659L376.68 56.2789L368.76 54.2228L361.92 51.9797L350.04 53.2881L342 51.9797L334.08 50.2973L324.36 50.7335L314.4 49.1758L304.56 50.7958L294.72 51.232L285.84 52.6651L275.88 53.0389L265.8 53.4127L255.36 53.3504L246.96 55.5935L235.32 53.7243L226.2 56.0297L216.6 54.8459L207.36 54.0358L196.32 55.5312L189 52.7274L179.04 52.6651L168.96 52.7897L160.68 50.9204L150.84 51.045L141.24 52.3535L131.28 51.5435L121.2 51.4189L110.88 51.1697L102.36 53.7866L91.92 53.2881L82.8 54.6589L72.24 54.2851L61.8 53.5997L52.32 55.0328L42.48 55.7805L32.28 54.3474L22.2 54.9705L12.6 54.0358L3.36 52.7897L0 53.2258V223.701L6.36 222.518L15.12 224.885L24.48 226.131L35.28 224.262L44.64 225.758L54.96 224.823L64.08 226.692L73.92 227.191L83.88 227.066L93.48 228.001L103.68 227.066L113.16 228.561L123.36 227.751L132.96 228.748L143.4 226.941L153 228.063L163.08 227.502L172.68 228.437L182.64 228.375L192.72 227.44L202.32 228.935L212.04 229.558L221.88 230.368L231.84 230.057L241.56 230.68L251.88 228.686L261.6 229.434L271.32 230.057L281.52 228.624L291 230.867L300.84 231.116L311.04 229.309L321 229.247L330.6 230.368L340.2 231.802L350.52 229.683L360.12 230.992L370.2 230.057L379.92 230.368L389.76 230.929L399.72 229.87L409.56 229.932L418.92 232.798L428.88 232.3L438.84 231.615L448.68 231.303L458.64 230.555L468.24 231.677L477.96 233.484L487.92 232.425L497.76 232.113L507.48 232.861L517.32 232.736L527.4 231.116L537.12 232.113L546.72 233.92L556.68 232.674L566.4 233.92L576.36 232.612L586.08 233.546L595.92 234.107L605.88 232.861L615.6 233.982L625.56 232.238L635.28 233.982L645.12 233.422L654.96 232.487L664.92 231.864L674.64 233.795L684.48 232.113L694.32 233.484L704.16 233.671L713.88 234.73L723.84 232.923L733.68 232.425L743.4 233.733L753.24 234.356L763.08 234.543L772.92 233.92L782.76 233.048L792.6 234.294L802.44 232.175L812.28 234.855L822.12 233.733L831.96 232.549L841.8 233.858L851.52 232.923L861.36 233.982L871.2 232.612L881.04 233.048L890.88 233.484L900.72 234.294L910.56 232.362L920.4 233.172L930.24 233.92L940.08 234.169L949.92 233.235L959.76 234.73L969.6 234.605L979.32 233.11L989.16 232.487L999 232.238L1008.84 232.612L1018.68 231.988L1028.52 233.608L1038.36 232.861L1048.2 232.3L1058.04 234.107L1067.88 234.045L1077.6 232.113L1087.56 234.605L1097.4 233.422L1107.12 231.988L1116.96 233.484H1126.8L1136.64 232.612L1146.48 231.739L1156.32 231.988L1166.16 234.107L1176 232.736L1185.84 233.048L1195.68 231.926L1205.52 233.858L1215.36 232.798L1225.2 234.294L1234.92 231.677L1244.76 232.113L1254.6 231.864L1264.44 232.113L1274.28 233.546L1284.12 231.802L1293.96 233.671L1303.8 232.736L1313.64 232.051L1323.48 233.484L1333.32 233.858L1343.16 233.235L1353 233.422L1362.72 231.926L1372.56 232.674L1382.4 233.11L1392.24 232.3L1402.08 233.733L1411.92 233.422L1421.76 234.045L1431.6 231.615L1440 232.487V60.2667Z" fill="#C5C5FF"/>
<path fill-rule="evenodd" clip-rule="evenodd" d="M1440 77.9L1430.88 77.4639L1420.92 77.0277L1416 78.4608L1407.24 77.8377L1401 80.9531L1393.08 79.8939L1382.64 80.517L1372.2 78.5231L1362 79.6447L1351.92 81.0154L1341.6 81.8255L1332.72 79.0839L1324.2 76.4046L1313.16 75.7192L1305.12 79.8316L1298.04 84.1932L1290.48 82.947L1283.4 81.5762L1277.52 76.9654L1267.44 74.7846L1259.28 71.42L1252.32 67.4945L1248 63.2576L1239.48 61.1391L1231.44 59.7683L1221.48 58.896L1211.52 60.2045L1204.56 58.3352L1197 59.0829L1187.52 58.9583L1179.48 61.2014L1173 64.6284L1164.84 66.6222L1155.36 67.4322L1146 67.3076L1137.72 65.3761L1128.6 67.1207L1118.88 68.2422L1112.16 70.7346L1104.48 72.5415L1095.84 73.4138L1087.2 72.8531L1077.84 72.5415L1068.84 71.7938L1060.44 68.6784L1050.6 68.8653L1040.52 71.6692L1029 70.1738L1020.24 66.6845L1016.28 61.7622L1010.88 57.4629L1000.08 55.469L992.88 52.1044L990.36 49.3005H983.4L976.68 45.8735L977.16 41.1381L974.4 37.0881L968.28 34.4711L963.6 36.4027L956.64 37.275L946.08 37.7735L935.28 36.8388L924.48 38.3965L917.4 42.4466L909.96 45.562L908.16 50.7959L900.12 53.6621L890.28 55.1575L883.08 57.276L876.36 60.0175L868.92 62.136L856.8 65.6876H846.72L835.32 65.6253L828.36 69.9869L819.96 72.9154L810.84 74.8469L805.8 79.1462L802.32 82.4485L796.92 85.4393L788.52 86.4363L780.6 86.3117L772.92 88.1809L769.2 91.8571L759.96 92.6048L755.76 95.0348L748.56 97.2779L740.88 99.4587L733.44 101.577L726.36 103.633L719.28 106.873L710.64 104.07L702.84 102.013L692.28 100.892L685.56 97.5272L676.92 97.091L668.28 97.8387L659.28 97.3402L652.8 94.2871L645.24 91.4832L640.68 87.7447L630.24 88.804L622.08 87.5578L611.64 89.3648L603 93.4771L593.28 92.5425L586.68 91.234L581.04 88.2432L572.28 85.6886L566.4 81.6385L561.84 76.8408L556.08 72.3546L550.08 68.7407L539.76 65.9991L536.88 60.8899L526.44 59.2698L520.32 55.656L510.84 55.3444L504.48 51.9175L498.24 48.6151L490.2 44.8766L477.96 44.4405L468.48 42.5089L467.52 37.2127L457.68 35.9665L448.44 36.0911L438.72 36.7142L428.28 34.658L419.28 33.9727L405.96 34.845L398.16 35.0942L388.68 35.2188L381.48 37.4619L371.88 38.7081L362.16 37.0881L348.96 39.2689L336.24 39.0819L327 38.1473L320.16 41.5743L312.84 44.1289L305.28 46.6836L296.52 48.989L291.12 52.7275L287.28 56.9021L279.84 59.8306L276.96 64.4414L268.92 66.9338L263.04 71.1707L254.28 74.1615L250.32 79.0839L239.64 81.0778L233.64 83.757L227.52 86.4363L219.84 88.0563L213.96 91.1094L204.6 91.5456L195.12 91.6079L187.8 88.6171L175.68 87.4332L164.04 84.3178L154.92 83.9439L145.8 86.9971L137.52 89.4894L128.28 91.234L118.92 92.854L113.16 97.3402L103.08 98.4618L96.12 101.826L86.88 102.45L81.36 105.503L73.44 105.814L63.24 105.69L52.08 106.998L43.44 108.805L34.68 106.624L26.16 105.814L17.16 106.936L8.28 106.437L0 105.253V277.661L3.96 278.284L13.44 278.657L22.8 279.717L32.64 278.595L41.76 280.215L51.36 280.091L61.2 279.218L70.44 280.527L79.92 281.025L89.64 280.153L98.88 281.835L108.24 282.77L117.96 281.773L127.08 284.328L136.92 282.957L146.4 283.206L155.64 285.138L165 286.321L174.6 284.452L183.6 286.882L193.2 285.574L202.44 287.007L211.8 286.633L221.16 286.758L230.64 286.446L239.76 287.755L249.24 287.817L258.36 289.437L267.84 289.063L277.08 289.312L286.32 291.181L295.8 289.811L305.04 291.805L314.52 290.808L323.76 291.867L333.24 290.247L342.48 291.306L351.84 291.618L361.2 292.739L370.56 292.49L379.92 291.368L389.28 291.306L398.64 290.745L408 291.742L417.36 293.487L426.72 292.365L436.08 291.555L445.44 293.3L454.8 293.051L464.16 292.303L473.4 291.493L482.88 292.801L492.24 293.736L501.6 292.303L511.08 291.057L520.56 293.3L530.04 293.923L539.4 291.929L548.88 291.181L558.36 291.493L567.84 292.615L577.2 291.991L586.68 291.929L596.28 293.362L605.52 290.558L615.12 292.864L624.6 293.113L633.96 291.991L643.44 291.119L652.92 292.864L662.28 291.119L671.76 292.303L681.24 290.683L690.72 292.428L700.2 292.988L709.56 291.057L719.04 292.428L728.52 291.244L738 291.618L747.36 290.309L756.96 292.365L766.2 289.811L775.68 289.624L785.16 289.561L794.76 292.49L804.12 290.621L813.6 290.745L823.08 292.303L832.56 291.805L841.92 291.119L851.4 292.178L860.76 289.935L870.24 289.25L879.72 290.558L889.2 291.244L898.68 290.496L908.16 291.306L917.52 291.368L927 290.122L936.48 289.25L945.96 292.303L955.32 290.247L964.8 289.561L974.28 289.624L983.76 291.742L993.24 289.748L1002.6 292.677L1012.08 289.873L1021.68 292.241L1031.16 290.371L1040.76 291.057L1050.24 290.621L1059.84 291.742L1069.32 291.057L1078.92 292.926L1088.4 292.864L1098 292.615L1107.48 290.496L1117.08 292.303L1126.56 290.87L1136.04 290.371H1145.64L1155.24 292.428L1164.72 291.306L1174.2 290.185H1183.68L1193.28 291.742L1202.88 292.178L1212.36 291.493L1221.96 292.178L1231.44 289.561L1241.04 290.558L1250.52 289.561L1260 290.683L1269.6 292.365L1279.08 289.375L1288.68 290.932L1298.28 292.116L1307.76 291.431L1317.36 291.618L1326.84 292.552L1336.44 291.555L1345.92 292.303L1355.4 292.677L1365 289.935L1374.48 292.615L1384.08 292.428L1393.56 292.988L1403.16 290.932L1412.76 290.87L1422.24 291.991L1431.72 292.864L1440 293.238V77.9Z" fill="#A9A8FF"/>
<path fill-rule="evenodd" clip-rule="evenodd" d="M0 350.001V117.528L3.12 117.591L11.64 119.46L20.52 119.647L29.28 120.083L37.92 121.018L46.08 122.887L54.36 123.946L61.2 126.563L67.8 129.305L75.48 131.236L81.24 134.538L88.6799 136.657L96.96 138.215L104.64 140.582L113.04 142.389L121.92 142.015L130.92 141.33L140.52 142.265L147.12 146.439L155.52 148.682L165 149.866L174 151.424L181.44 151.86L188.64 152.359L196.32 151.113L202.8 153.356L209.76 154.415L218.88 156.222L229.08 154.976L237.48 158.278L246.36 159.586L254.52 161.518L262.92 163.761L273 163.138L282.72 165.194L293.28 163.013L300.6 165.506L306.96 168.247L312.84 171.113L320.04 172.983L327.84 174.104L336.12 174.603L344.16 172.173L353.04 172.235L359.28 173.294L366.12 172.671L374.88 172.422L383.52 171.238L392.52 170.615L400.44 167.5L409.2 167.936L417.24 169.68L424.8 171.674L434.4 170.428L440.52 174.54L449.64 174.167L457.2 176.285H465.84L474.12 175.662L481.68 177.905L489.12 177.282L498.72 178.777L508.2 180.896L516.72 182.142L525.6 182.329L534 180.584L543.48 181.706L552.96 181.394L561.48 178.715L570.96 179.4L576.48 182.204L583.92 180.958L590.76 178.902L600.24 177.718L604.56 173.294L612.24 171.55L620.28 170.49L628.32 169.12L635.52 166.752L641.04 163.636L647.64 161.144L653.28 158.216L656.76 153.729L664.92 152.421L672.84 151.424L681.48 150.926L688.08 147.997L694.56 145.256L701.64 143.075L709.92 141.704L715.44 138.277L723.6 136.906L730.56 134.538L737.64 132.171L746.28 132.108L753.6 129.865L758.64 126.002L767.88 125.255L774.6 122.638L782.88 120.519L792.72 120.955L801 118.588L809.4 116.407L814.2 120.955L822 122.638L829.32 124.32L837 125.504L843.84 123.572L851.88 122.638L858.6 120.519L864.6 117.84L872.64 115.098L881.52 114.164L891.84 115.534L900 114.164L907.32 111.547L914.64 108.867L923.4 108.12L929.52 105.129L938.28 105.254L945.72 104.007H953.4L961.92 103.197L969.36 105.129L977.4 105.503L984.84 103.945L992.28 102.886L999.48 100.892L1006.68 98.5243L1011.6 94.3496L1020.24 95.9073L1028.52 96.5927L1035.96 99.085L1045.08 98.9604L1052.16 102.637L1061.76 100.767L1069.56 104.007L1078.44 103.696L1087.2 103.322L1095.6 101.764L1104 102.014L1111.56 103.945L1119.24 105.316L1124.04 109.304L1132.56 109.927L1140.36 110.674L1147.8 113.167L1156.2 114.662L1164.84 114.849L1173.48 115.534L1182.6 115.285L1191.36 114.351L1200.24 114.226L1209 111.858L1217.16 111.983L1225.2 113.79L1233.36 111.796L1241.52 112.98L1250.16 113.042L1258.32 111.111L1267.08 110.425L1275.96 109.802L1284.96 109.927L1293.84 110.051L1302.84 109.615L1311.84 110.425L1320.72 108.307L1329.12 107.871L1337.52 107.995L1345.44 109.179L1353.48 110.737L1361.52 109.179L1369.68 108.93L1378.08 108.743L1385.16 105.441L1394.28 105.503L1402.68 103.82L1411.2 101.951L1417.32 97.9635L1425.48 95.5958L1435.08 95.4089L1440 95.6581V350.001H0Z" fill="#6F6EFF"/>
<path fill-rule="evenodd" clip-rule="evenodd" d="M1018.15 40.2617C1018.15 40.2617 1018.24 40.4518 1018.34 40.5469C1018.34 40.642 1018.43 40.7371 1018.53 40.8321C1018.71 40.8321 1018.9 40.8321 1019.09 40.8321C1019.38 40.8321 1019.76 41.0222 1019.95 41.2124C1020.23 41.3074 1020.52 41.4976 1020.8 41.5926C1020.8 41.5926 1020.89 41.5926 1020.99 41.5926C1021.27 41.5926 1021.56 41.7828 1021.75 41.8779C1022.32 41.8779 1022.88 42.068 1023.45 42.163C1023.74 42.163 1024.02 42.163 1024.31 42.3532C1024.4 42.3532 1024.49 42.3532 1024.68 42.4482H1024.87C1024.87 42.4482 1024.87 42.4482 1024.97 42.4482C1025.16 42.4482 1025.25 42.7334 1025.35 42.8285C1025.54 42.8285 1025.82 42.8285 1026.01 42.8285C1026.29 42.8285 1026.67 42.6384 1026.86 42.6384C1027.05 42.068 1027.43 41.6877 1027.81 41.3074C1027.81 41.1173 1027.62 40.9272 1027.53 40.7371C1027.43 40.7371 1027.15 40.9272 1027.05 40.7371C1027.05 40.7371 1027.05 40.7371 1026.96 40.642C1026.96 40.5469 1026.96 40.1667 1026.96 39.9765C1026.96 39.9765 1026.96 39.8815 1026.96 39.7864C1026.96 39.5963 1027.15 39.4061 1027.34 39.4061C1027.34 38.4555 1027.34 37.5999 1027.72 36.9344C1027.81 36.7443 1028 36.4591 1028.19 36.269C1028.38 36.0788 1028.57 35.7936 1028.66 35.6986C1028.66 35.6986 1028.85 35.6035 1028.85 35.5084C1029.14 35.3183 1029.61 35.2232 1030.09 35.2232C1030.46 35.2232 1030.94 35.4134 1031.22 35.6035C1031.22 35.6035 1031.22 35.6986 1031.32 35.6986C1031.32 35.6986 1031.41 35.6986 1031.51 35.7936C1031.51 35.7936 1031.7 35.9838 1031.79 36.0788C1031.98 36.364 1032.26 36.6492 1032.36 37.0295C1032.64 37.5999 1032.74 38.3604 1032.74 39.216C1032.74 39.3111 1032.93 39.216 1032.93 39.3111C1033.21 39.5012 1033.31 40.1667 1033.12 40.5469C1033.02 40.5469 1032.74 40.5469 1032.64 40.5469C1032.45 40.737 1032.45 40.9272 1032.36 41.1173C1032.64 41.3075 1032.83 41.4976 1033.12 41.7828C1033.12 41.7828 1033.12 41.9729 1033.12 42.068C1033.31 42.068 1033.5 42.068 1033.59 42.068C1033.69 42.068 1033.88 42.163 1033.97 42.163C1034.35 42.163 1034.63 42.163 1035.01 42.163C1035.11 42.163 1035.11 41.9729 1035.3 42.068C1035.3 42.068 1035.49 41.9729 1035.58 41.8779C1035.96 41.7828 1036.43 41.6877 1036.81 41.5926C1037.29 41.5926 1037.67 41.5926 1038.14 41.4976C1038.8 41.4025 1039.28 41.0223 1039.84 40.7371C1040.13 40.642 1040.41 40.4519 1040.6 40.3568C1040.98 40.1667 1041.27 39.8815 1041.93 39.9765C1042.21 39.7864 1042.12 39.4061 1042.4 39.216C1042.88 39.216 1043.16 39.5012 1043.54 39.4061C1043.82 39.3111 1044.01 39.1209 1044.2 38.8357C1044.3 38.7407 1044.49 38.5505 1044.58 38.4555C1044.58 38.4555 1044.58 38.4555 1044.68 38.4555C1044.68 38.4555 1044.77 38.3604 1044.87 38.3604C1045.06 38.2653 1045.25 38.1703 1045.53 38.1703C1045.72 38.1703 1045.91 38.2653 1046.1 38.2653C1046.19 38.2653 1046.48 38.0752 1046.57 38.0752C1046.57 38.0752 1046.76 38.0752 1046.86 37.9801C1047.23 37.79 1047.71 37.5999 1048.18 37.5048C1048.37 37.5048 1048.37 37.79 1048.47 37.79C1048.85 37.79 1049.13 37.5048 1049.41 37.4097C1049.7 37.3147 1049.98 37.1246 1050.36 37.0295C1050.46 37.0295 1050.55 37.0295 1050.65 36.9344C1050.65 36.9344 1050.65 36.9344 1050.74 36.9344C1050.74 36.9344 1050.84 36.9344 1050.93 36.9344C1050.93 36.9344 1051.12 36.8393 1051.21 36.7443C1051.59 36.5541 1051.88 36.364 1052.26 36.269C1052.26 36.269 1052.45 36.269 1052.54 36.0788C1052.54 36.0788 1052.73 35.9838 1052.73 35.8887C1052.73 35.8887 1052.92 35.6986 1052.92 35.6035C1052.92 35.5084 1052.92 35.3183 1052.92 35.2232C1052.92 35.2232 1052.92 35.2232 1053.01 35.1282C1053.01 35.1282 1053.01 35.0331 1053.01 34.938C1053.01 34.938 1053.11 34.938 1053.11 34.843V34.7479C1053.11 34.7479 1053.11 34.7479 1053.2 34.7479C1053.3 34.7479 1053.49 34.5578 1053.77 34.4627C1053.96 34.4627 1054.06 34.1775 1054.34 34.0824C1054.63 33.9874 1055.1 33.8923 1055.48 34.0824C1055.48 34.3676 1055.48 34.4627 1055.38 34.6528C1055.19 34.7479 1054.91 34.843 1054.63 34.938C1054.63 35.1282 1054.82 35.1282 1054.91 35.2232C1055.1 35.2232 1055.19 35.1282 1055.38 35.0331C1055.48 35.0331 1055.57 35.0331 1055.76 35.0331C1055.95 35.0331 1056.05 34.938 1056.24 34.938C1056.33 34.938 1056.43 34.7479 1056.52 34.7479C1056.52 34.7479 1056.71 34.7479 1056.9 34.5578C1056.9 34.5578 1056.99 34.4627 1057.09 34.3676C1057.28 34.2726 1057.47 34.0824 1057.85 34.1775C1057.85 34.1775 1058.04 34.1775 1058.13 34.2726C1058.13 34.3676 1058.04 34.4627 1057.94 34.4627C1057.94 34.4627 1057.75 34.5578 1057.66 34.6528C1057.56 34.843 1057.37 34.843 1057.18 35.0331C1057.47 34.938 1057.75 34.7479 1058.13 34.7479C1058.42 34.6528 1058.79 34.0824 1059.27 34.4627C1059.46 34.4627 1059.17 34.6528 1059.27 34.6528C1059.36 34.6528 1059.36 34.7479 1059.46 34.843C1059.46 34.938 1059.27 35.0331 1059.08 35.1282C1058.98 35.1282 1058.79 35.2232 1058.7 35.3183C1058.42 35.4134 1058.13 35.5084 1057.85 35.6986C1057.66 35.6986 1057.47 35.8887 1057.28 35.9838C1057.09 35.9838 1056.99 36.0788 1056.71 36.1739C1056.14 36.4591 1055.57 36.6492 1055 36.8393C1054.44 37.0295 1053.96 37.3147 1053.39 37.6949C1053.2 37.8851 1052.92 37.9801 1052.73 38.1703C1052.73 38.1703 1052.54 38.1703 1052.54 38.3604C1052.07 38.4555 1051.69 38.7407 1051.31 39.0259C1051.31 39.0259 1051.31 39.0259 1051.21 39.0259C1051.21 39.0259 1051.03 39.1209 1050.93 39.216C1050.93 39.216 1050.93 39.216 1050.84 39.216C1050.84 39.216 1050.65 39.216 1050.55 39.4061C1050.46 39.4061 1050.36 39.5963 1050.27 39.5963H1050.17C1050.17 39.5963 1050.08 39.6913 1049.98 39.7864C1049.98 39.7864 1049.79 39.7864 1049.7 39.8815C1049.51 39.9765 1049.32 40.1667 1049.04 40.2617C1049.04 40.3568 1049.04 40.5469 1049.04 40.642C1048.75 40.9272 1048.37 41.0222 1048.09 41.2124C1047.71 41.4025 1047.42 41.5926 1047.05 41.5926C1046.95 41.8778 1046.86 42.163 1046.76 42.3532C1046.76 42.4482 1046.67 42.5433 1046.48 42.6384C1046.48 42.6384 1046.48 42.6384 1046.38 42.7334C1046.1 42.7334 1045.72 42.7334 1045.25 42.7334C1044.96 42.8285 1044.96 43.3038 1044.68 43.3989C1044.39 43.494 1044.11 43.3989 1043.82 43.589C1043.73 43.589 1043.63 43.7792 1043.63 43.8742C1043.63 43.9693 1043.54 44.0644 1043.44 44.2545C1043.16 44.4446 1042.88 44.4446 1042.5 44.5397C1042.12 44.7298 1041.93 45.015 1041.64 45.2051C1041.36 45.3953 1041.08 45.6805 1040.79 45.8706C1040.79 45.8706 1040.6 45.9657 1040.6 46.0607C1040.41 46.1558 1040.32 46.2509 1040.13 46.3459C1040.13 46.3459 1039.94 46.3459 1039.94 46.441C1039.94 46.441 1039.75 46.441 1039.65 46.5361C1039.65 46.5361 1039.47 46.6311 1039.37 46.6311C1039.09 46.7262 1038.8 46.7262 1038.61 47.0114C1038.61 47.0114 1038.61 47.0114 1038.61 47.1065C1038.61 47.1065 1038.61 47.2015 1038.61 47.2966C1038.61 47.2966 1038.61 47.3917 1038.61 47.4867C1038.61 47.6769 1038.33 47.867 1038.14 47.9621C1038.14 48.2473 1037.85 48.4374 1037.67 48.6275C1037.76 49.3881 1037.67 50.3387 1037.67 51.1943C1037.67 51.5746 1037.67 51.8598 1037.76 52.24C1037.76 52.6203 1037.76 52.9055 1037.76 53.1907C1037.76 53.666 1037.48 54.1414 1037.48 54.5216C1037.48 54.5216 1037.48 54.7117 1037.48 54.8068C1037.48 55.7575 1037.76 56.6131 1037.67 57.6588C1037.67 58.0391 1037.67 58.4193 1037.67 58.7996C1037.67 59.8453 1037.85 60.9861 1038.04 61.9368C1038.23 62.6022 1038.42 63.1726 1038.61 63.743C1038.8 64.3134 1039.09 64.8838 1039.28 65.4542C1039.18 65.8344 1038.8 66.0246 1038.61 66.3098C1038.9 67.3555 1039.28 68.4963 1039.56 69.542C1039.94 70.7779 1040.22 72.0138 1040.6 73.2496C1040.6 73.5348 1040.79 73.82 1040.79 74.0101C1040.79 74.1052 1040.79 74.2953 1040.89 74.3904C1041.08 75.0559 1041.27 75.7213 1041.46 76.4818C1041.55 76.8621 1041.64 77.2424 1041.74 77.7177C1041.74 77.9078 1041.83 78.098 1041.93 78.3832C1041.93 78.6684 1042.12 79.1437 1042.12 79.4289C1042.12 79.619 1042.12 79.9042 1042.12 80.1894C1042.12 80.3796 1042.31 80.5697 1042.31 80.8549C1042.5 81.3302 1042.59 81.9006 1042.69 82.5661C1042.69 82.8513 1042.88 83.2315 1042.97 83.6118C1042.97 83.8019 1043.16 83.9921 1043.16 84.1822C1043.16 84.3723 1043.26 84.5624 1043.35 84.8476C1043.35 85.0378 1043.44 85.323 1043.54 85.5131C1043.54 85.7032 1043.54 85.9884 1043.54 86.1786C1043.54 86.4638 1043.63 86.749 1043.73 87.0342C1043.73 87.3194 1043.73 87.6045 1043.82 87.8897C1043.82 88.4601 1044.01 89.1256 1044.01 89.696C1044.01 90.0763 1044.01 90.4565 1044.01 90.7417C1044.01 91.0269 1044.11 91.3121 1044.2 91.6924C1044.2 91.6924 1044.2 91.8825 1044.2 91.9776C1044.2 92.2628 1044.2 92.6431 1044.3 92.9283C1044.3 93.1184 1044.3 93.2135 1044.39 93.4036C1044.39 93.4987 1044.39 93.6888 1044.39 93.8789C1044.39 93.8789 1044.39 93.8789 1044.39 93.974C1044.49 94.4493 1044.68 95.0197 1044.87 95.4C1044.87 95.8753 1045.15 96.4457 1044.87 96.921C1044.96 97.1112 1045.06 97.3013 1045.25 97.3963C1045.34 97.6815 1045.43 98.0618 1045.53 98.347C1045.53 98.4421 1045.34 98.347 1045.25 98.347C1045.25 98.347 1045.34 98.4421 1045.34 98.5372C1045.34 98.5372 1045.53 98.6322 1045.53 98.7273C1045.81 98.7273 1046 98.9174 1046.19 99.1075C1046.19 99.2026 1046.19 99.3927 1046.19 99.4878C1046.19 99.5829 1046.19 99.9631 1046.19 100.153C1046.1 100.248 1045.81 100.248 1045.62 100.343C1045.62 100.343 1045.43 100.343 1045.34 100.343C1045.25 100.343 1045.25 100.438 1045.15 100.438C1045.06 100.438 1044.96 100.438 1044.87 100.438C1044.68 100.629 1044.3 100.438 1044.11 100.438C1043.92 100.438 1043.82 100.534 1043.63 100.534C1043.44 100.534 1043.16 100.534 1043.07 100.343C1043.07 100.343 1042.88 100.343 1042.78 100.343C1042.59 100.343 1042.5 100.343 1042.31 100.248C1042.12 100.248 1041.93 100.248 1041.83 100.248C1041.64 100.248 1041.46 99.9631 1041.36 99.8681C1041.17 99.773 1040.98 99.5829 1040.98 99.4878C1040.98 99.2977 1040.98 99.2026 1041.08 99.0125C1040.79 98.9174 1040.41 98.8223 1040.13 98.7273C1040.03 98.6322 1040.13 98.9174 1039.94 98.8223C1039.94 98.5371 1039.65 98.252 1039.56 97.9668C1039.56 97.6816 1039.75 97.4914 1039.75 97.2062C1039.75 97.0161 1039.65 96.826 1039.56 96.6358C1039.47 96.3506 1039.37 95.8753 1039.37 95.4C1039.18 94.3542 1038.9 93.4036 1038.71 92.3579C1038.52 91.3121 1038.42 90.2664 1038.14 89.2207C1038.14 88.8404 1037.95 88.5552 1037.95 88.175C1037.95 87.7947 1037.95 87.4144 1037.95 87.0342C1037.95 86.4638 1037.76 85.9884 1037.57 85.5131C1037.48 85.0378 1037.29 84.5625 1037.1 84.0871C1037.1 83.4217 1037 82.7562 1036.81 82.0907C1036.81 81.7105 1036.62 81.3302 1036.43 80.9499C1036.43 80.8549 1036.43 80.6647 1036.34 80.4746C1036.34 80.2845 1036.34 79.9993 1036.15 79.7141C1036.15 79.5239 1036.15 79.3338 1035.96 79.1437C1035.86 78.7634 1035.58 78.4782 1035.49 78.193C1035.3 77.9078 1035.2 77.6226 1035.01 77.3374C1035.01 77.2424 1034.92 77.0523 1034.82 76.9572C1034.73 76.5769 1034.54 76.1966 1034.44 75.8164C1034.44 75.6262 1034.25 75.5312 1034.25 75.3411C1034.25 75.3411 1034.25 75.246 1034.16 75.1509C1033.5 73.7249 1033.12 72.2989 1032.55 70.7779C1032.17 70.2075 1031.89 69.7322 1031.7 69.0667C1031.03 69.0667 1030.56 68.9716 1029.9 68.9716C1029.8 68.9716 1029.8 69.1618 1029.71 69.3519C1029.42 69.8272 1029.23 70.3026 1028.95 70.7779C1028.57 71.9187 1028.19 73.1545 1027.81 74.3904C1027.81 74.3904 1027.81 74.5805 1027.81 74.6756C1027.62 75.0559 1027.43 75.6263 1027.24 76.1966C1027.05 76.672 1026.96 77.2424 1026.77 77.7177C1026.58 78.2881 1026.2 78.8585 1025.92 79.4289C1025.92 80.0943 1025.63 80.5697 1025.63 81.2351C1025.44 81.6154 1025.25 82.0907 1025.06 82.471C1025.06 82.7562 1025.06 83.1365 1024.97 83.4217C1024.97 83.8019 1024.97 84.0871 1024.97 84.3723C1024.97 84.6575 1024.78 84.8476 1024.78 85.0378C1024.59 85.2279 1024.49 85.5131 1024.4 85.7983C1024.4 85.7983 1024.4 85.9884 1024.31 86.0835C1024.12 86.4638 1023.93 86.749 1023.83 87.1292C1023.83 87.3194 1023.83 87.6046 1023.83 87.7947C1023.83 87.9848 1023.83 88.27 1023.83 88.4602C1023.83 88.7454 1023.74 89.0306 1023.64 89.3158C1023.64 89.5059 1023.55 89.7911 1023.45 89.9812C1023.26 90.7417 1023.26 91.6924 1023.07 92.548V92.7381C1023.07 92.8332 1023.07 93.0233 1022.98 93.1184C1022.79 93.5937 1022.6 94.2592 1022.41 94.9246C1022.41 95.0197 1022.41 95.2099 1022.32 95.3049C1022.32 95.7803 1022.32 96.3506 1022.32 96.7309C1022.32 96.921 1022.22 97.0161 1022.13 97.2062C1022.13 97.3963 1021.94 97.4914 1021.94 97.6816C1021.94 97.8717 1022.03 98.0618 1022.03 98.2519C1022.03 98.5371 1021.84 98.7273 1021.75 98.9174C1021.75 98.9174 1021.75 99.1075 1021.65 99.1075C1021.56 99.1075 1021.65 98.8223 1021.56 98.8223C1021.37 98.8223 1021.18 98.8224 1021.08 99.0125C1020.99 99.0125 1020.7 99.1075 1020.61 99.2977C1020.61 99.4878 1020.7 99.5829 1020.7 99.773C1020.52 100.058 1020.23 100.153 1020.04 100.343C1019.66 100.343 1019.38 100.534 1019 100.534C1018.81 100.534 1018.62 100.724 1018.34 100.724C1018.15 100.724 1018.05 100.724 1017.86 100.724C1017.67 100.724 1017.58 100.724 1017.48 100.724C1017.39 100.724 1017.2 100.724 1017.1 100.724C1017.01 100.724 1016.91 100.724 1016.82 100.724C1016.63 100.724 1016.73 100.629 1016.54 100.629C1016.25 100.629 1015.87 100.629 1015.68 100.438C1015.68 100.248 1015.68 100.058 1015.68 99.773C1015.68 99.773 1015.68 99.5829 1015.68 99.4878C1015.87 99.2977 1016.06 99.2026 1016.25 99.0125C1016.25 99.0125 1016.16 99.0125 1016.25 98.8223C1016.25 98.252 1016.44 97.7766 1016.73 97.4914C1016.54 96.921 1016.73 96.4457 1016.82 95.8753C1017.2 95.2098 1017.39 94.2592 1017.58 93.3085C1017.58 92.8332 1017.77 92.3579 1017.86 91.9776C1017.96 91.5023 1018.24 91.122 1018.24 90.6467C1018.24 90.2664 1018.24 89.9812 1018.24 89.6009C1018.24 89.3157 1018.24 89.1256 1018.34 88.8404C1018.43 88.175 1018.53 87.6045 1018.71 87.0342C1018.71 86.9391 1018.71 86.844 1018.81 86.749C1018.81 86.4638 1018.81 86.2736 1018.81 85.9884C1018.81 85.5131 1019 85.0378 1019.19 84.5625C1019.38 84.0871 1019.47 83.6118 1019.57 83.1365C1019.57 82.8513 1019.57 82.5661 1019.57 82.2809C1019.57 81.8055 1019.76 81.3302 1019.85 80.7598C1019.85 80.4746 1019.85 80.1894 1019.85 79.9042C1019.85 79.619 1020.04 79.3338 1020.04 79.0486C1020.04 78.8585 1020.04 78.7634 1020.04 78.5733C1020.23 78.0029 1020.42 77.3374 1020.52 76.7671C1020.7 76.1967 1020.89 75.5312 1020.99 74.8657C1020.99 74.5805 1021.08 74.2953 1021.18 74.0101C1021.56 72.7743 1021.94 71.2532 1022.32 69.9223C1022.6 68.7815 1022.88 67.7358 1023.26 66.69C1023.07 66.4049 1022.69 66.2147 1022.5 65.9295C1022.79 64.9789 1023.36 63.9331 1023.64 62.7923C1023.83 62.1269 1024.02 61.3664 1024.12 60.6058C1024.12 60.2256 1024.21 59.6552 1024.21 59.1799C1024.21 58.7045 1024.12 58.1341 1024.12 57.5637C1024.12 56.9933 1024.21 56.4229 1024.12 55.9476C1024.12 55.3772 1023.83 55.1871 1023.64 54.7117C1023.64 54.5216 1023.55 54.3315 1023.45 54.0463C1023.45 53.571 1023.45 53.0956 1023.26 52.5252C1023.26 52.0499 1023.07 51.5746 1023.07 51.0992C1023.07 50.814 1023.07 50.5288 1023.07 50.2436C1023.07 50.0535 1022.79 49.9585 1022.69 49.7683C1022.69 49.7683 1022.5 49.5782 1022.41 49.4831C1022.32 49.3881 1022.13 49.1979 1022.03 49.0078C1021.94 48.9127 1021.84 48.7226 1021.75 48.6275C1021.75 48.6275 1021.65 48.6275 1021.56 48.4374C1021.37 48.1522 1021.18 47.7719 1020.89 47.4867C1020.61 47.3917 1020.42 47.2966 1020.14 47.2015C1019.66 47.0114 1019.19 46.7262 1018.71 46.5361C1018.24 46.2509 1017.77 45.8706 1017.2 45.5854C1016.91 45.4904 1016.44 45.3953 1016.16 45.3002C1016.06 45.1101 1015.97 44.8249 1015.78 44.6348C1015.49 44.6348 1015.11 44.6348 1014.74 44.5397C1014.55 44.3496 1014.36 43.9693 1014.26 43.7792C1014.17 43.7792 1014.07 43.7792 1013.98 43.6841C1013.6 43.589 1013.31 43.6841 1013.03 43.589C1013.03 43.589 1012.75 43.3989 1012.65 43.3038C1012.56 43.2088 1012.56 43.0186 1012.46 42.9236C1012.46 42.8285 1012.27 42.6384 1012.18 42.4482C1012.18 42.2581 1012.27 42.3532 1012.27 42.2581C1011.89 42.2581 1011.61 41.9729 1011.32 41.7828C1011.04 41.5927 1010.66 41.4976 1010.47 41.3074C1010.47 41.1173 1010.47 41.0223 1010.47 40.9272C1010.47 40.8321 1010.28 40.7371 1010.19 40.642C1010.19 40.642 1010 40.5469 1009.9 40.4518C1009.9 40.4518 1009.81 40.4518 1009.71 40.4518C1009.71 40.4518 1009.52 40.2617 1009.43 40.1667C1009.43 40.1667 1009.43 40.1667 1009.33 40.1667C1009.24 40.1667 1009.05 39.9765 1008.86 39.7864C1008.86 39.7864 1008.77 39.7864 1008.67 39.6913C1008.67 39.6913 1008.58 39.5963 1008.48 39.5012C1008.48 39.5012 1008.48 39.5012 1008.39 39.5012C1008.2 39.3111 1008.01 39.216 1007.82 39.1209C1007.63 39.0259 1007.44 38.9308 1007.16 38.8357C1006.78 38.6456 1006.4 38.3604 1006.11 37.9801C1005.83 37.9801 1005.54 37.6949 1005.26 37.5999C1005.26 37.5999 1005.07 37.5999 1004.98 37.5999C1004.5 37.4097 1003.84 37.3147 1003.27 37.1246C1003.08 37.1246 1002.99 37.0295 1002.8 36.9344C1002.8 36.9344 1002.8 36.9344 1002.7 36.9344C1002.7 36.9344 1002.42 36.9344 1002.32 36.8393C1002.32 36.8393 1002.13 36.7443 1002.04 36.6492C1001.66 36.4591 1001.28 36.1739 1000.9 36.0788C1000.9 36.0788 1000.81 36.0788 1000.81 35.9838C1000.81 35.9838 1000.81 35.8887 1000.71 35.8887C1000.71 35.8887 1000.62 35.8887 1000.52 35.8887C1000.43 35.8887 1000.24 35.7936 1000.05 35.6986C1000.05 35.5084 1000.14 35.4134 1000.33 35.4134C1000.33 35.2232 1000.14 35.3183 1000.14 35.1282C1000.33 34.938 1000.52 34.938 1000.81 35.0331C1001 35.0331 1001.19 35.2232 1001.38 35.3183C1001.94 35.3183 1002.32 35.5084 1002.8 35.6986C1002.8 35.6986 1002.8 35.6986 1002.7 35.6035C1002.7 35.6035 1002.51 35.6035 1002.51 35.5084C1002.32 35.4134 1002.13 35.3183 1001.94 35.2232C1001.75 35.1282 1001.56 35.0331 1001.47 34.843C1001.85 34.3676 1002.42 34.843 1002.8 34.938C1003.08 35.0331 1003.37 35.2232 1003.46 35.3183C1003.74 35.3183 1003.84 35.3183 1004.03 35.5084C1004.31 35.4134 1004.6 35.5084 1004.79 35.6035C1004.98 35.6035 1005.07 35.5084 1005.07 35.3183C1004.98 35.0331 1004.6 35.1282 1004.41 35.1282C1004.41 35.1282 1004.22 35.0331 1004.12 34.938C1004.12 34.938 1003.93 34.843 1003.93 34.6528C1003.93 34.6528 1003.93 34.4627 1003.93 34.3676C1004.31 34.2726 1004.69 34.3676 1005.07 34.3676C1005.35 34.4627 1005.54 34.6528 1005.73 34.843C1005.92 34.843 1006.02 34.938 1006.21 35.0331C1006.21 35.0331 1006.21 35.1282 1006.3 35.1282C1006.3 35.1282 1006.3 35.1282 1006.4 35.2232C1006.4 35.2232 1006.59 35.4134 1006.68 35.4134C1006.68 35.6035 1006.78 35.8887 1006.87 36.0788C1006.97 36.269 1007.25 36.4591 1007.34 36.6492C1007.44 37.0295 1007.72 37.1245 1008.01 37.3147C1008.2 37.3147 1008.29 37.5048 1008.48 37.5999C1008.77 37.79 1009.14 37.8851 1009.52 38.0752C1010.28 38.4555 1010.95 38.7407 1011.61 39.0259C1011.61 39.0259 1011.7 39.0259 1011.8 39.0259C1011.8 39.0259 1011.8 39.0259 1011.99 39.0259C1012.08 39.0259 1012.37 39.0259 1012.56 39.216C1013.03 39.4061 1013.41 39.5963 1013.79 39.7864L1013.98 39.8815C1014.17 39.8815 1014.36 39.8815 1014.55 39.8815C1015.3 39.9765 1015.68 40.5469 1016.16 40.9272C1016.44 41.0223 1016.63 41.2124 1016.91 41.2124C1017.2 41.2124 1017.39 41.0223 1017.67 41.0223L1018.15 40.2617Z" fill="#6F6EFF"/>
</svg>
