<svg width="222" height="206" viewBox="0 0 222 206" fill="none" xmlns="http://www.w3.org/2000/svg">
<path d="M138.356 35.7816C138.356 35.7816 114.514 65.2083 77.1928 47.0035C39.8715 28.7986 1.71893 76.2986 33.6805 105.91C65.6421 135.521 33.8008 151.167 55.5387 169.342C80.2456 189.998 102.501 149.026 122.198 158.663C165.67 179.932 198.174 172.141 191.177 148.062C178.895 105.793 162.542 102.846 175.334 81.1027C188.127 59.3594 161.082 13.4712 138.356 35.7816Z" fill="#EEF2FB"/>
<path d="M146.049 95.303C145.928 95.2926 145.807 95.3291 145.712 95.4048C145.616 95.4806 145.554 95.59 145.536 95.7105C145.523 95.8323 145.559 95.9544 145.635 96.0503C145.711 96.1462 145.822 96.2083 145.944 96.2231C146.065 96.2322 146.185 96.1953 146.28 96.1198C146.375 96.0442 146.438 95.9356 146.456 95.8156C146.469 95.6939 146.433 95.5722 146.357 95.4764C146.281 95.3807 146.17 95.3184 146.049 95.303Z" fill="white"/>
<path d="M61.2845 108.935C61.2874 104.85 61.804 100.781 62.8222 96.8254C68.2784 75.4927 87.7761 59.5239 110.708 59.5239C137.815 59.5239 160.116 81.8202 160.116 108.935C160.116 116.269 154.173 119.888 151.023 126.513L126.872 116.615L110.708 108.927L103.368 111.438L99.7803 112.669L77.648 120.239L77.5788 120.262L76.6024 120.595L63.9703 124.919C62.2072 119.771 61.3075 114.368 61.3076 108.927L61.2845 108.935Z" fill="#EDEDED"/>
<path d="M157.312 112.409C157.31 116.495 156.793 120.564 155.775 124.521C150.319 145.854 130.821 161.82 107.889 161.82C80.7824 161.82 58.481 139.524 58.481 112.409C58.4808 105.075 60.1143 97.832 63.2631 91.2075L91.7383 104.739L107.902 112.427L115.242 109.918L118.83 108.688L140.962 101.118L141.031 101.095L142.007 100.759L154.639 96.4382C156.402 101.585 157.302 106.987 157.302 112.427L157.312 112.409Z" fill="#FCCA46"/>
<path d="M152.696 144.701C175.907 121.491 175.907 83.8589 152.696 60.6483C129.486 37.4378 91.8538 37.4377 68.6432 60.6483C45.4326 83.8589 45.4326 121.491 68.6432 144.701C91.8538 167.912 129.486 167.912 152.696 144.701Z" fill="#C5C5FF"/>
<path d="M110.669 156.774C140.547 156.774 164.767 132.553 164.767 102.676C164.767 72.7986 140.547 48.5781 110.669 48.5781C80.7919 48.5781 56.5714 72.7986 56.5714 102.676C56.5714 132.553 80.7919 156.774 110.669 156.774Z" fill="white"/>
<path d="M101.608 66.2334C100.907 66.4039 100.2 65.9745 100.023 65.2736L98.5325 59.2366C98.362 58.5357 98.7914 57.8284 99.4923 57.6516C100.193 57.4811 100.901 57.9105 101.077 58.6115L102.568 64.6484C102.738 65.3557 102.309 66.0629 101.608 66.2334Z" fill="#393883"/>
<path d="M121.847 147.694C121.146 147.865 120.439 147.435 120.262 146.735L118.771 140.698C118.601 139.997 119.03 139.289 119.731 139.113C120.432 138.942 121.14 139.371 121.316 140.072L122.807 146.109C122.977 146.81 122.548 147.518 121.847 147.694Z" fill="#393883"/>
<path d="M147.106 93.6141C146.935 92.9132 147.365 92.2059 148.066 92.0291L154.103 90.5388C154.803 90.3683 155.511 90.7977 155.688 91.4987C155.858 92.1996 155.429 92.9069 154.728 93.0837L148.691 94.574C147.99 94.7445 147.283 94.3151 147.106 93.6141Z" fill="#393883"/>
<path d="M65.651 113.847C65.4805 113.146 65.9099 112.438 66.6108 112.262L72.6478 110.771C73.3487 110.601 74.056 111.03 74.2328 111.731C74.4033 112.432 73.9739 113.139 73.273 113.316L67.236 114.806C66.5351 114.977 65.8215 114.554 65.651 113.847Z" fill="#393883"/>
<path d="M130.889 69.0682C130.271 68.6956 130.075 67.8873 130.447 67.2684L132.083 64.5594C132.456 63.9405 133.264 63.7448 133.883 64.1174C134.502 64.4899 134.697 65.2982 134.325 65.9171L132.689 68.6261C132.317 69.245 131.508 69.4407 130.889 69.0682Z" fill="#393883"/>
<path d="M87.4244 141.272C86.8055 140.899 86.6098 140.091 86.9823 139.472L89.0094 136.119C89.382 135.5 90.1903 135.304 90.8091 135.677C91.428 136.05 91.6237 136.858 91.2512 137.477L89.2241 140.83C88.8452 141.449 88.0432 141.651 87.4244 141.272Z" fill="#393883"/>
<path d="M144.283 122.933C144.655 122.315 145.464 122.119 146.082 122.491L148.791 124.127C149.41 124.499 149.606 125.308 149.233 125.927C148.861 126.545 148.053 126.741 147.434 126.369L144.725 124.733C144.106 124.354 143.91 123.552 144.283 122.933Z" fill="#393883"/>
<path d="M72.0795 79.4686C72.4521 78.8497 73.2604 78.654 73.8792 79.0265L77.2324 81.0536C77.8512 81.4262 78.047 82.2345 77.6744 82.8533C77.3019 83.4722 76.4936 83.6679 75.8747 83.2954L72.5215 81.262C71.9027 80.8894 71.7006 80.0874 72.0795 79.4686Z" fill="#393883"/>
<path d="M110.796 102.329C110.379 103.011 109.495 103.225 108.813 102.815L87.3802 89.7939C86.6982 89.3771 86.4835 88.493 86.894 87.811C87.3108 87.129 88.1949 86.9143 88.8768 87.3248L110.309 100.346C110.991 100.763 111.206 101.647 110.796 102.329Z" fill="#3E479B"/>
<path d="M110.972 104.128C110.29 103.712 110.076 102.828 110.486 102.146L121.367 84.2368C121.783 83.5548 122.667 83.3401 123.349 83.7506C124.031 84.1673 124.246 85.0514 123.836 85.7334L112.955 103.642C112.538 104.324 111.654 104.545 110.972 104.128Z" fill="#3E479B"/>
<path d="M115.759 101.419C116.454 104.23 114.736 107.065 111.926 107.76C109.116 108.454 106.281 106.736 105.586 103.926C104.891 101.116 106.609 98.281 109.419 97.5863C112.223 96.8917 115.065 98.6093 115.759 101.419Z" fill="#4C65BA"/>
<path d="M142.018 100.044C141.902 101.054 141.741 102.061 141.531 103.055C141.052 105.345 140.335 107.578 139.391 109.718C139.163 110.231 138.924 110.744 138.671 111.236C138.399 111.779 138.113 112.313 137.812 112.837C137.533 113.327 137.248 113.822 136.931 114.288C136.672 114.727 136.251 115.047 135.759 115.18C135.175 115.318 135.052 114.411 135.631 114.26C135.836 114.177 136.007 114.027 136.116 113.834C136.285 113.604 136.428 113.358 136.577 113.114C136.892 112.602 137.194 112.071 137.476 111.536C137.546 111.407 137.615 111.279 137.679 111.149C137.912 110.697 138.135 110.244 138.343 109.78C139.581 107.068 140.443 104.199 140.905 101.254C140.954 100.959 140.995 100.664 141.034 100.369L142.018 100.044Z" fill="white"/>
<path d="M135.534 113.429C138.976 110.236 140.708 105.018 140.964 100.592C141.333 94.2572 133.551 91.1967 127.152 95.2203C121.645 98.6852 121.541 102.222 119.129 102.222C116.718 102.222 114.55 103.194 113.727 105.477C112.904 107.761 114.427 109.578 117.607 112.622C120.787 115.667 132.095 116.623 135.534 113.429Z" fill="#233D4D"/>
<path d="M125.152 95.021C123.671 96.0152 122.468 97.3699 121.656 98.9574C121.4 99.4572 121.208 99.9826 120.979 100.495C120.78 100.949 120.526 101.433 120.075 101.682C119.547 101.974 118.834 101.971 118.253 102.074C117.051 102.289 115.8 102.615 114.826 103.389C113.852 104.162 113.168 105.357 113.317 106.633C113.334 106.721 113.384 106.799 113.456 106.851C113.529 106.903 113.619 106.925 113.708 106.912C113.796 106.9 113.877 106.854 113.932 106.784C113.988 106.714 114.014 106.625 114.006 106.536C113.88 105.464 114.519 104.485 115.354 103.86C116.328 103.135 117.573 102.886 118.747 102.697C119.306 102.607 119.908 102.566 120.416 102.286C120.857 102.02 121.213 101.632 121.441 101.169C121.684 100.716 121.846 100.226 122.053 99.757C122.288 99.2309 122.568 98.7266 122.891 98.2501C123.611 97.1924 124.527 96.2825 125.59 95.5694C125.951 95.3234 125.523 94.7724 125.152 95.021Z" fill="white"/>
<path d="M71.031 92.7555C71.0514 93.1485 70.9702 93.5401 70.7951 93.8925C70.62 94.2449 70.357 94.5462 70.0315 94.7673C69.8383 94.8966 69.6196 94.9832 69.3902 95.0212C69.1609 95.0592 68.926 95.0478 68.7014 94.9877C68.2068 94.8365 67.8378 94.4469 67.42 94.165C66.52 93.6019 65.4876 93.2855 64.4267 93.2475C63.8871 93.2167 63.3459 93.2347 62.8096 93.3014C62.2509 93.3654 61.7075 93.5141 61.1514 93.5884C60.1673 93.7217 59.1909 93.3014 58.9295 92.2711C58.8667 92.002 58.8697 91.7216 58.9384 91.4539C59.0071 91.1862 59.1395 90.9391 59.3242 90.7335C59.4702 90.1953 60.1263 90.0312 60.5876 89.9005C61.2058 89.7247 61.8421 89.6199 62.4841 89.5879C63.8094 89.5499 65.1341 89.6826 66.4256 89.9826C67.0151 90.1081 67.602 90.2388 68.1863 90.3977C68.6739 90.4992 69.1503 90.6486 69.6086 90.8436C70.3903 91.2024 70.9977 91.856 71.031 92.7555Z" fill="#F76D6D"/>
<path d="M69.7213 93.1628C69.8814 93.3183 70.0248 93.4901 70.1493 93.6754C70.3081 93.9317 69.9417 94.2136 69.7802 93.9599C69.4344 93.4819 68.9894 93.0841 68.4757 92.7938C67.9516 92.4344 67.3998 92.1173 66.8253 91.8456C66.2664 91.575 65.6523 91.4381 65.0314 91.4458C64.4064 91.5125 63.7963 91.6795 63.2246 91.9404C62.2661 92.3094 61.1282 92.7092 60.1492 92.1967C59.3804 91.7943 58.9037 90.9153 59.3112 90.0798C59.7187 89.2443 60.6105 88.8343 61.4101 88.5421C62.2599 88.2471 63.1556 88.1065 64.0549 88.127C65.8948 88.1789 67.6722 88.8063 69.137 89.9209C69.8059 90.4335 70.7208 91.1511 70.7361 92.0711C70.7333 92.3468 70.6276 92.6114 70.4399 92.8133C70.2522 93.0153 69.996 93.1399 69.7213 93.1628Z" fill="#F76D6D"/>
<path d="M78.5731 98.9394C77.9068 100.154 77.9683 100.772 76.2051 100.492C74.9621 100.295 70.3363 101.307 67.1354 99.6851C66.1666 99.1931 64.9544 97.1941 64.9544 97.1941C64.9544 97.1941 69.16 94.1674 69.4342 91.3637C69.5726 89.9465 66.6869 89.7825 65.2671 90.6872C63.5756 91.7635 61.3793 89.7466 62.4685 88.5242C63.4552 87.4171 64.9083 86.8814 66.3281 86.6046C67.0921 86.4256 67.8757 86.3438 68.6602 86.3612C69.5418 86.4278 70.0467 87.0967 70.5362 87.7502C71.7157 89.3285 73.0939 90.748 74.6367 91.9737C76.1743 93.1859 77.9683 93.5421 78.7063 95.5847C79.1651 96.8507 79.0703 98.0347 78.5731 98.9394Z" fill="#FFA895"/>
<path d="M164.368 109.701C164.368 109.603 164.342 109.506 164.324 109.411C164.053 107.617 163.65 105.485 163.245 103.501C163.217 103.363 163.189 103.227 163.163 103.091C163.138 102.955 163.104 102.815 163.076 102.676C163.076 102.645 163.076 102.617 163.056 102.589C162.979 102.212 162.899 101.841 162.823 101.479C162.682 100.831 162.551 100.218 162.428 99.6649C162.392 99.5085 162.359 99.3599 162.328 99.2138C161.987 97.6889 161.746 96.6818 161.746 96.6818L164.752 95.2466C165.364 94.9556 165.873 94.485 166.21 93.8975C166.548 93.31 166.698 92.6337 166.641 91.9585C166.467 89.8212 166.144 86.833 165.675 85.8078C164.906 84.1702 164.019 84.324 163.368 85.0749C163.022 85.4696 163.338 86.5434 163.712 87.4762C163.02 86.2512 161.877 84.8058 160.424 85.1313C157.981 85.6823 158.24 88.527 158.522 91.159C158.804 93.7909 158.568 94.8237 158.568 94.8237C158.568 94.8237 154.901 96.6023 154.857 98.6679C154.859 99.5264 154.93 100.383 155.068 101.231C155.091 101.39 155.116 101.541 155.142 101.692C155.142 101.771 155.165 101.848 155.178 101.923C155.365 102.979 156.387 108.632 156.387 108.632L156.977 114.409L154.329 113.819C154.329 113.819 147.666 112.456 139.698 111.359C138.614 111.21 137.582 111.126 136.623 111.085C134.905 110.997 133.183 111.055 131.474 111.259L136.216 101.408L127.746 96.7561C126.836 97.7369 126.271 98.9875 126.136 100.318C125.959 102.02 124.729 102.671 124.598 103.781C124.26 106.971 128.038 107.976 128.038 107.976L127.197 110.423L123.156 109.457L93.4811 99.3214L86.049 96.7792C83.8475 96.0283 81.5436 95.6233 79.3857 94.7648C79.009 94.6148 78.6411 94.4437 78.2837 94.2522C78.1427 94.1779 78.0043 94.1036 77.8736 94.0216C77.0382 96.159 76.2505 98.3143 75.5107 100.488L75.9567 100.623C80.9285 102.176 85.8311 104.608 90.5441 106.484L90.0674 108.55C90.0674 108.586 115.055 116.256 115.055 116.256L115.311 116.336C115.311 116.336 114.44 118.77 114.896 120.262C115.235 121.224 115.85 122.065 116.664 122.679L115.78 126.456L130.388 134.009L135.257 123.847H135.349H135.498H135.603L135.977 123.827L136.234 123.814H136.398H136.592L136.849 123.799H136.99L137.446 123.778H137.607L138.012 123.758H138.389L139.063 123.729H139.291L139.678 123.717L140.278 123.699L140.775 123.681L141.469 123.663H141.951H142.441L143.64 123.642H143.968H144.224H144.752C146.92 123.624 149.255 123.642 151.521 123.742C159.263 124.075 165.078 124.908 165.616 120.211C166.154 115.513 165.103 115.341 164.422 110.272C164.411 109.998 164.391 109.849 164.368 109.701Z" fill="#FFA895"/>
<path d="M138.476 101.541C138.45 101.955 138.302 102.352 138.051 102.683C137.8 103.013 137.456 103.261 137.063 103.396C136.671 103.531 136.247 103.547 135.846 103.441C135.445 103.335 135.084 103.113 134.809 102.802C134.534 102.491 134.357 102.106 134.301 101.695C134.245 101.284 134.312 100.865 134.494 100.492C134.676 100.119 134.964 99.8081 135.322 99.5988C135.681 99.3896 136.093 99.2913 136.507 99.3163C136.783 99.333 137.052 99.4038 137.3 99.5246C137.548 99.6454 137.77 99.814 137.953 100.021C138.135 100.227 138.276 100.468 138.365 100.729C138.455 100.99 138.493 101.265 138.476 101.541Z" fill="#FFA895"/>
<path d="M165.87 119.654C165.836 120.536 165.677 121.492 165.055 122.163C164.447 122.803 163.692 123.286 162.856 123.57C158.999 125.052 154.34 124.46 150.316 124.362C145.534 124.244 140.744 123.563 135.964 123.793L135.59 123.814H135.485H135.39H135.244L134.732 124.895L130.375 133.975L115.767 126.423L116.664 122.678C115.855 122.065 115.244 121.227 114.906 120.269C114.604 119.29 114.878 117.899 115.101 117.063C115.219 116.628 115.321 116.343 115.321 116.343L115.065 116.264L90.0546 108.583C90.0546 108.547 93.4913 99.3135 93.4913 99.3135L123.166 109.449C122.894 110.254 122.712 111.5 123.53 112.612L123.581 112.678C124.186 113.47 125.303 114.193 127.256 114.659C128.892 115.067 130.614 114.971 132.195 114.383C132.264 114.357 132.333 114.331 132.402 114.298C134.054 113.597 135.505 112.496 136.626 111.095C137.571 111.136 138.604 111.22 139.701 111.369C147.646 112.466 154.332 113.829 154.332 113.829L153.074 109.267L152.863 108.381L153.245 108.293L162.93 106.533C163.248 106.5 163.809 106.397 164.078 106.382C164.206 106.382 164.739 109.926 164.801 110.257C165.062 111.579 165.301 112.907 165.516 114.239C165.813 116.028 165.931 117.842 165.87 119.654Z" fill="white"/>
<path d="M98.7064 167.048C98.7064 167.048 98.3194 176.274 97.8299 180.992C97.6172 183.042 97.4275 185.147 97.3173 186.984C97.1764 189.38 97.179 191.318 97.4532 192.048C97.5376 192.278 97.6052 192.513 97.6557 192.753C98.322 195.767 97.7402 202.035 97.7402 202.035L70.2235 200.526C70.2235 200.526 70.1415 195.598 71.5741 194.824C73.0067 194.05 80.9078 193.757 80.9078 193.757L84.1651 191.741L85.3927 190.972L85.608 186.964L85.9975 179.719L85.6669 167.93L97.8811 164.775L98.7064 167.048Z" fill="#FFA895"/>
<path d="M130.375 133.998C130.375 133.998 128.043 142.645 126.838 149.508C125.103 159.428 117.922 160.443 109.873 160.343L101.966 160.243L102.051 178.209L84.929 176.684V161.648C84.929 150.766 84.009 147.494 87.7327 145.2C91.4565 142.906 112.566 141.763 112.566 141.763L115.767 126.445L130.375 133.998Z" fill="#233D4D"/>
<path d="M78.2991 141.684C76.7614 143.381 76.7204 143.883 75.357 146.346C74.7778 147.394 73.7424 148.255 72.6251 148.942L64.624 121.963C66.0976 121.233 67.5918 120.908 68.376 121.963C69.7189 123.757 70.234 127.368 70.4262 129.244C70.4954 129.972 70.5159 130.439 70.5159 130.439L71.0413 130.977L71.5359 131.489L72.3355 132.309L72.4354 132.202L72.9993 131.6C74.0691 133.86 75.2891 136.045 76.6512 138.142C76.9588 138.809 77.2637 139.472 77.5738 140.136C77.8096 140.644 78.0556 141.164 78.2991 141.684Z" fill="#233D4D"/>
<path d="M70.9539 149.823C70.4473 150.055 69.929 150.261 69.4009 150.438C69.172 150.517 68.9293 150.548 68.688 150.53C68.4466 150.511 68.2116 150.443 67.9975 150.33C67.7833 150.217 67.5945 150.062 67.4427 149.873C67.2909 149.685 67.1793 149.467 67.1148 149.234L60.6797 125.954C60.5831 125.602 60.597 125.23 60.7194 124.887C60.8418 124.544 61.0669 124.247 61.3639 124.037C61.8483 123.693 62.4582 123.268 63.081 122.863C64.8134 129.257 68.8268 142.74 70.9539 149.823Z" fill="#E1E1E1"/>
<path d="M96.8638 125.716C96.8638 125.716 89.5214 132.999 84.0499 136.826C83.4476 137.246 82.871 137.623 82.3277 137.94C82.0483 138.112 81.7793 138.263 81.5179 138.394C81.4461 138.435 81.3743 138.468 81.3051 138.504C80.6157 138.842 80.3313 139.568 79.9571 139.944C79.2523 140.662 78.7167 141.226 78.2939 141.685C78.0376 141.172 77.8043 140.644 77.5634 140.121C77.2533 139.457 76.9484 138.794 76.6409 138.127C75.2787 136.031 74.0587 133.845 72.9889 131.585L74.055 130.449L75.0006 129.442L75.4825 128.93L75.6439 128.758L76.5896 127.748L90.1262 113.325L96.8638 125.716Z" fill="#FFA895"/>
<path d="M112.684 129.536C112.366 124.634 111.653 119.765 110.554 114.977C108.681 107.104 104.852 104.06 99.3216 105.351C96.0976 106.105 89.9367 112.994 86.6998 116.438C82.2688 121.141 78.4784 125.608 78.4784 125.608C78.4784 125.608 90.7132 139.319 90.7132 138.965C90.7132 138.611 98.645 127.256 98.645 127.256C98.645 127.256 97.0151 151.453 109.429 153.675C114.027 154.501 119.132 143.127 119.132 143.127L115.767 126.446L112.684 129.536Z" fill="#233D4D"/>
<path d="M136.982 101.515C136.803 101.492 136.626 101.458 136.449 101.42L137.074 101.038C137.149 100.991 137.206 100.919 137.235 100.835C137.264 100.752 137.263 100.66 137.233 100.577C137.223 100.537 137.205 100.5 137.179 100.468C137.153 100.436 137.121 100.41 137.084 100.392C137.047 100.374 137.006 100.364 136.965 100.363C136.924 100.362 136.884 100.371 136.846 100.387L135.485 101.212C135.429 101.247 135.383 101.296 135.351 101.354C135.32 101.412 135.304 101.477 135.306 101.543C135.303 101.609 135.319 101.674 135.352 101.732C135.385 101.789 135.433 101.837 135.49 101.868C135.951 102.034 136.428 102.15 136.913 102.217C136.955 102.219 136.997 102.212 137.036 102.197C137.075 102.182 137.111 102.16 137.141 102.131C137.172 102.102 137.196 102.067 137.213 102.029C137.229 101.99 137.238 101.949 137.238 101.907C137.252 101.821 137.233 101.734 137.186 101.661C137.138 101.589 137.066 101.537 136.982 101.515Z" fill="#F76D6D"/>
<path d="M72.6249 148.942C72.0856 149.268 71.5276 149.562 70.9539 149.823C68.8268 142.74 64.8033 129.257 63.0811 122.863C63.5749 122.532 64.0884 122.232 64.6187 121.963L72.6249 148.942Z" fill="white"/>
<path d="M84.0548 136.825C83.1815 137.45 82.2642 138.011 81.31 138.504C80.6206 138.842 80.3362 139.567 79.962 139.944C79.2572 140.661 78.7216 141.225 78.2987 141.684C78.0425 141.171 77.8092 140.644 77.5683 140.121C77.2582 139.457 76.9533 138.793 76.6458 138.127C75.2836 136.03 74.0636 133.844 72.9938 131.584L74.0599 130.449L75.4874 128.929L76.5944 127.748L77.5529 128.911L84.0548 136.825Z" fill="#F2F7F2"/>
<path d="M97.8301 180.992C97.7993 181.297 97.7686 181.602 97.7352 181.907C97.7019 182.212 97.6815 182.471 97.6558 182.753C97.2612 186.902 97.0331 190.916 97.4559 192.048C97.5403 192.278 97.608 192.514 97.6584 192.753C96.7631 192.594 95.8679 192.454 94.9726 192.333C92.8455 192.046 90.7098 191.86 88.5656 191.774C87.4773 191.731 86.3881 191.713 85.2981 191.72C84.9213 191.72 84.5471 191.72 84.1704 191.741L85.398 190.972L85.9106 181.287L85.9567 180.439L85.9951 179.719L86.3027 179.76C90.1417 180.252 93.9842 180.663 97.8301 180.992Z" fill="#F2F7F2"/>
<path d="M97.8556 200.526C97.8377 200.802 97.8197 201.218 97.8043 201.661C97.794 201.949 97.7259 202.232 97.6042 202.494C97.4825 202.755 97.3095 202.989 97.0957 203.182C96.8818 203.376 96.6314 203.524 96.3591 203.619C96.0869 203.714 95.7983 203.753 95.5106 203.734L70.8053 202.143C70.2613 202.109 69.7503 201.87 69.3755 201.475C69.0007 201.079 68.79 200.556 68.7858 200.011C68.7638 199.461 68.8155 198.911 68.9396 198.375L97.8556 200.526Z" fill="#E1E1E1"/>
<path d="M97.3199 186.984C97.1789 189.381 97.1815 191.318 97.4557 192.048C97.5401 192.278 97.6078 192.514 97.6582 192.753C97.9785 194.199 98.0118 196.398 97.958 198.289C97.9349 199.124 96.3152 199.183 96.2742 199.809L70.226 197.992C70.3696 197.533 69.2522 197.407 69.4572 196.902C69.939 195.621 70.5464 194.386 71.1845 194.042C72.6171 193.273 80.9231 193.758 80.9231 193.758L81.4895 193.407L82.2404 192.943L83.6961 192.041L84.1804 191.741L84.4367 191.577L85.4003 190.982L85.6156 186.974C89.5113 187.271 93.4237 187.274 97.3199 186.984Z" fill="#233D4D"/>
<path d="M97.9555 198.281C97.9324 199.116 97.894 199.893 97.853 200.518L68.937 198.368C69.0805 197.909 69.2497 197.399 69.4496 196.895L97.9555 198.281Z" fill="white"/>
<path d="M84.137 194.949C84.0052 195.05 83.8415 195.1 83.676 195.09C83.5104 195.08 83.3539 195.011 83.2349 194.895C82.9453 194.675 82.666 194.437 82.3866 194.203C82.1073 193.97 81.7741 193.675 81.4768 193.404L82.2277 192.94C82.4378 193.132 82.6531 193.319 82.871 193.506C83.0298 193.645 83.1965 193.781 83.363 193.916C83.4297 193.968 83.504 194.042 83.5834 194.111C83.654 194.084 83.7297 194.073 83.805 194.079C83.8803 194.085 83.9535 194.107 84.0191 194.144C84.0878 194.183 84.1467 194.236 84.1913 194.301C84.236 194.366 84.2651 194.44 84.2765 194.518C84.2879 194.596 84.2812 194.675 84.257 194.75C84.2328 194.825 84.1918 194.893 84.137 194.949Z" fill="white"/>
<path d="M86.3409 194.262C85.4171 193.568 84.5301 192.827 83.6833 192.041L84.1677 191.741L84.424 191.577C85.1791 192.27 85.9676 192.926 86.7894 193.545C87.2328 193.87 86.7792 194.59 86.3409 194.262Z" fill="white"/>
<path d="M71.0463 130.967C70.8695 131.905 70.6952 132.838 70.5184 133.786C70.5011 133.907 70.4384 134.016 70.3431 134.092C70.2478 134.167 70.1271 134.204 70.0058 134.194C69.8849 134.177 69.7751 134.115 69.6995 134.019C69.6239 133.924 69.5886 133.802 69.6009 133.681C69.876 132.208 70.1536 130.732 70.4338 129.252C70.503 129.98 70.5235 130.447 70.5235 130.447L71.0463 130.967Z" fill="white"/>
<path d="M71.5306 131.474C71.4674 133.022 71.4033 134.573 71.3384 136.126C71.3128 136.718 72.2354 136.83 72.261 136.233C72.3174 134.885 72.3712 133.537 72.4302 132.187L71.5306 131.474Z" fill="white"/>
<path d="M128.476 100.346C128.112 100.12 127.691 100.003 127.262 100.008C126.834 100.013 126.415 100.142 126.057 100.377C125.984 100.434 125.936 100.517 125.924 100.609C125.912 100.7 125.937 100.793 125.993 100.867C126.049 100.94 126.133 100.988 126.225 101C126.316 101.012 126.409 100.987 126.483 100.931L126.557 100.885L126.644 100.841C126.718 100.808 126.795 100.78 126.872 100.754C126.949 100.728 127.013 100.723 127.054 100.718C127.129 100.706 127.204 100.699 127.28 100.698H127.362H127.485L127.605 100.715L127.685 100.733C127.756 100.756 127.828 100.78 127.897 100.808L128.007 100.859C128.212 100.985 128.433 100.987 128.546 100.821C128.597 100.748 128.618 100.658 128.605 100.57C128.593 100.482 128.546 100.402 128.476 100.346Z" fill="#233D4D"/>
<path d="M132.99 100.346C132.626 100.12 132.205 100.003 131.776 100.008C131.347 100.013 130.929 100.142 130.571 100.377C130.498 100.434 130.45 100.517 130.438 100.609C130.426 100.7 130.45 100.793 130.507 100.867C130.563 100.94 130.647 100.988 130.738 101C130.83 101.012 130.923 100.987 130.996 100.931L131.071 100.885L131.158 100.841C131.232 100.808 131.309 100.78 131.386 100.754C131.463 100.728 131.527 100.723 131.568 100.718C131.643 100.706 131.718 100.699 131.793 100.698H131.875H131.998L132.119 100.715L132.198 100.733C132.27 100.756 132.342 100.78 132.411 100.808L132.521 100.859C132.726 100.985 132.947 100.987 133.059 100.821C133.111 100.748 133.132 100.658 133.119 100.57C133.106 100.482 133.06 100.402 132.99 100.346Z" fill="#233D4D"/>
<path d="M103.738 118.365L97.187 128.555C96.8667 129.055 97.6047 129.618 97.9276 129.113L104.468 118.924C104.801 118.424 104.06 117.86 103.738 118.365Z" fill="white"/>
<path d="M114.245 140.065L103.583 141.707C100.121 142.241 96.6408 142.712 93.2067 143.409C91.3139 143.784 89.445 144.27 87.6095 144.865C87.0406 145.052 87.4045 145.908 87.9683 145.723C91.2103 144.652 94.5777 144.05 97.9401 143.519C101.431 142.968 104.921 142.44 108.412 141.902L114.373 140.985C114.965 140.895 114.837 139.975 114.245 140.065Z" fill="white"/>
<path d="M97.735 181.907C97.7093 182.189 97.6812 182.471 97.6556 182.753C93.726 182.348 89.8126 181.863 85.9154 181.298L85.9615 180.449C86.7457 180.565 87.5274 180.675 88.3116 180.782C91.4468 181.204 94.5879 181.579 97.735 181.907Z" fill="#D1E3E2"/>
<path d="M82.3225 137.94C82.0432 138.112 81.7741 138.263 81.5127 138.393C79.4744 135.318 77.302 132.334 74.9955 129.442L75.4773 128.929L75.6387 128.757C76.1513 129.406 76.6767 130.064 77.1764 130.726C78.7688 132.796 80.2928 134.917 81.7485 137.086C81.956 137.371 82.1457 137.655 82.3225 137.94Z" fill="#D1E3E2"/>
<path d="M131.067 102.717C130.945 102.63 130.793 102.592 130.642 102.611C130.492 102.631 130.355 102.706 130.261 102.822C130.18 102.955 130.091 103.084 129.995 103.208C129.949 103.268 129.901 103.326 129.849 103.38C129.704 103.528 129.547 103.663 129.379 103.785L129.195 103.908C129.022 104.012 128.839 104.101 128.649 104.172L128.414 104.258C128.22 104.313 128.02 104.35 127.818 104.368H127.571H127.38C127.229 104.354 127.079 104.398 126.96 104.489C126.842 104.581 126.765 104.714 126.746 104.859C126.737 104.931 126.743 105.004 126.763 105.074C126.784 105.144 126.818 105.21 126.865 105.267C126.911 105.324 126.969 105.371 127.035 105.407C127.1 105.442 127.172 105.464 127.247 105.473C128.023 105.513 128.797 105.35 129.485 105C130.173 104.65 130.75 104.126 131.156 103.484C131.234 103.366 131.268 103.225 131.252 103.086C131.235 102.946 131.17 102.816 131.067 102.717Z" fill="#F76D6D"/>
<path d="M163.924 86.6636C163.845 86.3792 163.386 86.4407 163.463 86.7303C163.994 88.6912 164.263 90.7137 164.263 92.7451C164.263 93.0399 164.721 93.0988 164.724 92.7989C164.729 90.7275 164.46 88.6646 163.924 86.6636Z" fill="#F76D6D"/>
<path d="M67.5274 91.9508C67.4967 91.6535 67.0379 91.7176 67.0687 92.0149C67.1712 93.0195 66 93.9267 65.0466 93.5731C64.9896 93.5503 64.9257 93.5511 64.8693 93.5754C64.8128 93.5997 64.7683 93.6454 64.7455 93.7025C64.7227 93.7596 64.7236 93.8234 64.7478 93.8799C64.7721 93.9363 64.8178 93.9808 64.8749 94.0036C66.1563 94.488 67.6658 93.3065 67.5274 91.9508Z" fill="#F76D6D"/>
<path d="M67.5378 94.0882C67.5383 94.9829 67.2734 95.8577 66.7767 96.6019C66.28 97.3461 65.5737 97.9262 64.7472 98.269C63.9207 98.6117 63.0112 98.7017 62.1336 98.5274C61.256 98.3532 60.4497 97.9226 59.8169 97.2901C59.184 96.6576 58.7529 95.8516 58.5782 94.9741C58.4035 94.0966 58.4929 93.187 58.8352 92.3603C59.1774 91.5336 59.7572 90.827 60.5011 90.3299C61.245 89.8327 62.1197 89.5674 63.0144 89.5674C64.2136 89.5674 65.3638 90.0436 66.212 90.8913C67.0602 91.7391 67.5371 92.8889 67.5378 94.0882Z" fill="#6F6EFF"/>
<path d="M78.281 94.2497C78.158 94.5572 78.0401 94.8673 77.9222 95.1774C77.2388 96.9799 76.5827 98.7944 75.954 100.621L75.5081 100.485C76.2496 98.3117 77.0372 96.1564 77.8709 94.019C78.0016 94.1011 78.1401 94.1754 78.281 94.2497Z" fill="#233D4D"/>
<path d="M74.9699 96.8887C74.7367 99.1261 72.2764 99.8283 70.3927 99.9897C69.8085 100.052 69.2182 100.018 68.6449 99.8898C68.0734 99.7514 67.5276 99.5284 66.9689 99.3465C65.8128 98.9925 64.6275 98.7421 63.4271 98.5981C62.6582 98.4931 61.6613 98.1625 61.7279 97.2091C61.8022 96.1302 63.0093 95.7637 63.8884 95.6125C65.0929 95.41 66.3205 95.4356 67.525 95.2152C68.1845 95.0862 68.8351 94.915 69.4727 94.7027C69.6942 94.4129 69.9669 94.1662 70.2774 93.9749C70.2617 93.9482 70.2522 93.9184 70.2497 93.8876C70.2471 93.8569 70.2515 93.8259 70.2626 93.7971C70.2737 93.7682 70.2912 93.7423 70.3137 93.7211C70.3362 93.7 70.3632 93.6842 70.3927 93.675C71.4614 93.288 72.5813 93.6494 73.4681 94.2901C74.3548 94.9308 75.0852 95.7688 74.9699 96.8887Z" fill="#FFA895"/>
<path d="M162.428 99.6644C159.974 100.264 157.542 100.943 155.131 101.702C155.106 101.551 155.08 101.399 155.057 101.241C157.461 100.491 159.885 99.8148 162.328 99.2134C162.358 99.3569 162.392 99.5081 162.428 99.6644Z" fill="#233D4D"/>
<path d="M165.869 119.655C165.836 120.536 165.677 121.492 165.055 122.164C164.446 122.804 163.692 123.287 162.856 123.571C158.999 125.052 154.34 124.46 150.316 124.362C145.534 124.245 140.744 123.563 135.964 123.794L135.59 123.814H135.485H135.39H135.244L134.732 124.896C134.475 124.237 134.234 123.568 134.017 122.925C133.079 120.131 132.536 117.219 132.405 114.275C134.056 113.574 135.508 112.473 136.628 111.072C137.574 111.113 138.606 111.197 139.703 111.346C147.648 112.443 154.334 113.806 154.334 113.806L153.076 109.245L152.866 108.358L153.248 108.271L162.933 106.51C163.25 106.477 163.812 106.374 164.081 106.359C164.209 106.359 164.742 109.903 164.803 110.234C165.065 111.556 165.303 112.884 165.518 114.216C165.816 116.013 165.934 117.835 165.869 119.655Z" fill="#6F6EFF"/>
<path d="M123.584 112.684C122.986 113.016 122.35 113.274 121.69 113.452C120.905 113.67 120.108 113.834 119.342 114.108C118.645 114.356 117.979 114.682 117.356 115.08C116.506 115.626 115.743 116.295 115.091 117.066C115.208 116.63 115.311 116.346 115.311 116.346L115.055 116.266L90.0546 108.583C90.0546 108.547 93.4913 99.3135 93.4913 99.3135L123.166 109.449C122.894 110.254 122.712 111.5 123.53 112.612L123.584 112.684Z" fill="#6F6EFF"/>
</svg>
