<svg width="60" height="26" viewBox="0 0 500 235" fill="none" xmlns="http://www.w3.org/2000/svg">
<path d="M33.1203 0.995605V96.9061C34.1575 95.8724 35.8791 94.8352 37.95 93.4558C40.3631 91.7306 45.1964 89.6597 52.4428 87.2466C59.6856 84.8335 67.627 83.4505 75.5614 83.4505C96.9512 83.4505 114.887 90.6969 129.38 105.532C143.873 120.021 151.116 137.618 151.116 158.663C151.116 179.365 143.873 196.958 129.034 211.797C114.549 226.632 96.6055 233.878 75.5614 233.878C55.2052 233.878 37.2656 226.978 22.4271 213.522C7.58859 200.063 0 181.435 0 157.629V0.995605H33.1203ZM75.5578 115.195C51.7478 115.195 33.1203 133.48 33.1203 158.666C33.1203 183.506 51.0634 202.137 75.5578 202.137C99.3608 202.137 117.992 183.506 117.992 158.666C117.992 133.477 99.3608 115.195 75.5578 115.195Z" fill="#6F6EFF"/>
<path d="M466.88 96.9061V0.995605H500V157.629C500 181.435 492.404 200.063 477.573 213.519C462.734 226.974 444.798 233.875 424.442 233.875C403.398 233.875 385.455 226.628 370.623 211.793C356.131 196.958 348.884 179.361 348.884 158.659C348.884 137.615 356.134 120.018 370.623 105.528C385.109 90.6934 403.052 83.447 424.442 83.447C440.656 83.447 455.841 88.9682 462.392 93.4523L466.88 96.9061ZM424.442 202.134C448.937 202.134 466.88 183.503 466.88 158.663C466.88 133.477 448.245 115.191 424.442 115.191C400.639 115.191 382.005 133.477 382.005 158.663C382.005 183.503 400.639 202.134 424.442 202.134Z" fill="#6F6EFF"/>
<path d="M174.443 84.3118H207.563V159.753L207.63 167.321C207.63 190.707 226.61 206.89 249.997 206.893C273.384 206.89 292.364 190.711 292.364 167.321L292.431 159.753V84.3118H325.551V163.669C325.551 163.902 325.551 164.131 325.548 164.361C325.378 195.632 303.812 224.798 273.408 232.111C266.374 233.805 258.485 234.941 249.99 234.941C241.498 234.941 233.613 233.801 226.582 232.111C196.178 224.801 174.612 195.629 174.443 164.361V84.3118Z" fill="#6F6EFF"/>
</svg>
