<svg width="60" height="26" viewBox="0 0 60 26" fill="none" xmlns="http://www.w3.org/2000/svg">
<path d="M18.2931 16.7006C18.2909 19.097 17.3903 21.3947 15.7889 23.0892C14.1875 24.7837 12.0162 25.7367 9.75151 25.739H6.22389V21.4388H9.75151C10.9387 21.4375 12.0769 20.9379 12.9164 20.0496C13.7558 19.1613 14.228 17.9569 14.2292 16.7006C14.2288 15.3367 13.7388 14.0239 12.8583 13.0278C11.9778 12.0317 10.7726 11.4268 9.48654 11.3354C8.2005 11.244 6.92967 11.673 5.93122 12.5356C4.93276 13.3981 4.28124 14.6298 4.1085 15.9814V25.7142H4.06264V25.7639H0V16.7006C0 16.3746 0.0152865 16.0511 0.0446833 15.7326V0.0161133H4.1085V8.62651C5.48666 7.66233 7.08597 7.11135 8.73641 7.03214C10.3868 6.95293 12.0267 7.34845 13.4817 8.17665C14.9367 9.00485 16.1524 10.2348 16.9996 11.7357C17.8468 13.2366 18.2938 14.9524 18.2931 16.7006Z" fill="#6F6EFF"/>
<path d="M39.12 6.98389V16.0222C39.12 18.5893 38.1563 21.0512 36.4409 22.8664C34.7255 24.6816 32.3989 25.7013 29.9729 25.7013C27.547 25.7013 25.2203 24.6816 23.5049 22.8664C21.7895 21.0512 20.8258 18.5893 20.8258 16.0222V6.98389H24.892V16.0222C24.892 17.4488 25.4275 18.817 26.3808 19.8257C27.3341 20.8345 28.6271 21.4012 29.9753 21.4012C31.3234 21.4012 32.6164 20.8345 33.5697 19.8257C34.523 18.817 35.0586 17.4488 35.0586 16.0222V6.98389H39.12Z" fill="#6F6EFF"/>
<path d="M60 16.6844V25.7477H55.9373V25.6979H55.8915V15.9652C55.7187 14.6136 55.0672 13.3819 54.0687 12.5194C53.0703 11.6568 51.7995 11.2278 50.5134 11.3192C49.2274 11.4106 48.0222 12.0155 47.1417 13.0116C46.2612 14.0077 45.7711 15.3205 45.7707 16.6844C45.772 17.9406 46.2441 19.1451 47.0836 20.0333C47.9231 20.9216 49.0613 21.4213 50.2485 21.4226H53.7761V25.7228H50.2485C47.9838 25.7205 45.8125 24.7675 44.2111 23.073C42.6097 21.3784 41.7091 19.0808 41.7069 16.6844C41.7062 14.9362 42.1532 13.2204 43.0004 11.7195C43.8476 10.2186 45.0633 8.98869 46.5182 8.16049C47.9732 7.33229 49.6131 6.93677 51.2636 7.01598C52.914 7.09519 54.5133 7.64617 55.8915 8.61034V0H59.9541V15.7164C59.9848 16.038 60.0001 16.3611 60 16.6844Z" fill="#6F6EFF"/>
</svg>
